<svg width="239" height="140" viewBox="0 0 239 140" fill="none" xmlns="http://www.w3.org/2000/svg">
<path d="M73.6667 115.883C103.288 124.585 120.465 117.425 124.43 103.656C128.504 89.8863 117.823 74.5748 88.3119 65.8725C51.3133 54.9672 17.2878 72.1514 17.2878 72.1514C17.2878 72.1514 38.4299 105.528 73.6667 115.883Z" fill="#F27484"/>
<path d="M112.097 59.5938C104.829 89.5559 112.757 106.41 126.742 109.824C140.727 113.239 155.482 101.893 162.75 71.9311C171.889 34.3683 153.06 1.3219 153.06 1.3219C153.06 1.3219 120.686 23.9036 112.097 59.5938Z" fill="#F27484"/>
<path d="M141.497 57.6109C151.298 86.9121 144.801 104.317 131.147 108.833C117.492 113.349 101.856 103.325 92.0557 74.1342C79.833 37.5628 95.6895 2.97418 95.6895 2.97418C95.6895 2.97418 129.825 22.6919 141.497 57.6109Z" fill="#F27484"/>
<path d="M157.794 64.4405C129.054 75.6763 119.805 91.869 125.09 105.198C130.376 118.637 148.104 124.144 176.734 112.909C212.632 98.8088 229.039 64.4405 229.039 64.4405C229.039 64.4405 192.04 51.0016 157.794 64.4405Z" fill="#F27484"/>
<path d="M128.614 51.5524C111.216 76.9982 112.647 95.5042 124.54 103.656C136.432 111.807 154.271 106.41 171.669 80.9638C193.361 49.0189 187.525 11.4561 187.525 11.4561C187.525 11.4561 149.315 21.1497 128.614 51.5524Z" fill="#FC8DA5"/>
<path d="M76.1994 83.6075C95.0291 108.062 113.088 112.358 124.54 103.545C135.882 94.7331 136.322 76.1169 117.493 51.7727C93.9279 21.2599 56.3787 15.0912 56.3787 15.0912C56.3787 15.0912 53.736 54.5266 76.1994 83.6075Z" fill="#FC8DA5"/>
<path d="M97.1209 67.0843C98.0019 97.9276 110.114 112.027 124.429 111.697C138.854 111.256 150.196 96.3854 149.205 65.5421C148.104 26.9879 121.236 0 121.236 0C121.236 0 96.1299 30.2926 97.1209 67.0843Z" fill="#F9BCC1"/>
<path opacity="0.5" d="M89.4133 70.3889C89.7436 82.8364 91.5054 93.1909 94.3684 101.453C100.755 105.749 106.701 107.731 112.097 107.731C103.728 101.673 97.782 88.3441 97.1213 66.9741C96.791 55.8485 98.8831 45.3838 101.966 36.1308C99.7641 34.3683 97.5618 32.8261 95.3595 31.3941C91.5054 43.1807 88.9728 56.5094 89.4133 70.3889Z" fill="#F27484"/>
<path opacity="0.5" d="M136.542 107.07C141.828 106.96 147.664 104.757 153.72 100.241C156.142 91.6488 157.354 81.0739 157.023 68.5163C156.583 54.4165 153.61 41.5284 149.425 30.1824C147.333 31.7246 145.131 33.4871 143.039 35.3597C146.452 44.1721 148.875 54.4165 149.205 65.6523C149.756 86.9121 144.58 100.571 136.542 107.07Z" fill="#F27484"/>
<path opacity="0.3" d="M128.504 110.926C131.587 114.561 135.992 117.094 141.828 118.306C154.381 116.984 169.026 107.07 183.341 85.9207C189.508 76.9982 193.912 67.635 196.885 58.6023C192.371 58.382 187.526 58.382 182.571 58.8226C180.038 66.0928 176.514 73.6935 171.669 80.8536C157.354 101.673 142.929 109.053 131.587 106.63C130.706 108.172 129.715 109.604 128.504 110.926Z" fill="#BC354C"/>
<path opacity="0.3" d="M50.6529 63.0085C54.1766 71.931 59.0217 80.9637 65.4083 89.3355C79.7233 107.952 93.818 117.205 105.71 118.857C112.648 117.535 117.713 114.561 121.016 110.485C120.025 109.384 119.034 108.172 118.263 106.85C107.032 110.265 91.946 103.766 76.3097 83.6075C71.0242 76.7779 67.1702 69.5076 64.3072 62.2374C59.5722 62.2374 54.9474 62.4577 50.6529 63.0085Z" fill="#BC354C"/>
<path d="M57.3696 99.69C57.3696 99.69 53.2954 100.241 50.5425 99.69C47.7896 99.1393 47.239 98.8088 46.1379 99.2494C46.1379 99.2494 42.394 95.6143 41.2928 96.0549C40.1917 96.4956 32.814 93.6315 29.2903 94.0722C25.8768 94.5128 14.9754 95.394 16.517 104.867C18.0586 114.341 22.3531 126.127 28.079 129.872C33.9151 133.508 46.248 129.872 46.248 129.872C46.248 129.872 66.0687 131.855 72.125 130.754L57.3696 99.69Z" fill="white"/>
<path opacity="0.2" d="M16.9577 106.85C18.7195 115.993 22.7938 126.458 28.1894 129.872C34.0255 133.508 46.3583 129.872 46.3583 129.872C46.3583 129.872 66.179 131.855 72.2354 130.754L69.8128 125.687C62.4351 129.101 45.8078 125.687 45.8078 125.687C45.8078 125.687 32.8142 128.33 26.9781 124.585C22.4634 121.831 19.0498 114.341 16.9577 106.85Z" fill="#B5B4B4"/>
<path d="M64.417 103.105C64.417 103.105 60.8933 98.919 57.9202 99.1393C54.837 99.4697 60.8933 122.051 72.2352 130.533C72.2352 130.533 73.6667 130.974 74.8779 130.974C74.8779 130.974 68.3811 108.833 68.271 108.613C68.271 108.392 64.417 103.105 64.417 103.105Z" fill="#E5E5E5"/>
<path d="M41.2928 95.9448C41.2928 95.9448 39.2006 107.952 48.4502 116.323C48.4502 116.323 43.6052 106.63 46.1378 99.1393C46.1378 99.1393 42.2838 95.5042 41.2928 95.9448Z" fill="#E5E5E5"/>
<path d="M29.5107 102.885C29.5107 102.885 26.5376 107.181 28.2994 112.468C30.1714 117.755 33.8052 120.509 33.8052 120.509C33.8052 120.509 24.4454 115.552 22.2431 109.604C20.2611 104.206 21.4723 99.1393 21.4723 99.1393C21.4723 99.1393 22.7937 106.299 24.8859 109.604C25.1061 109.604 25.4365 104.647 29.5107 102.885Z" fill="#E5E5E5"/>
<path d="M63.646 129.432C63.646 129.432 51.203 128.33 46.2478 129.762C46.2478 129.762 52.9648 130.423 56.7088 130.644C56.7088 130.644 58.6908 129.872 63.646 129.432Z" fill="#E5E5E5"/>
<path d="M159.116 101.122C159.116 101.122 137.533 92.8604 127.623 92.8604C113.418 92.8604 81.7049 104.867 64.3067 103.105C64.3067 103.105 63.8663 113.9 70.9136 122.382C70.9136 122.382 69.4821 124.475 70.0327 126.237C70.8035 128.551 74.4373 132.186 82.1453 132.847C88.2017 133.397 124.76 133.838 128.724 132.847C128.724 132.847 138.194 137.363 144.47 132.957C144.47 132.957 150.527 133.948 153.39 134.279C156.253 134.609 163.63 132.626 163.63 130.974C163.63 129.322 149.426 125.356 149.426 125.356C149.426 125.356 151.738 123.483 152.509 122.162L156.143 118.637L159.116 101.122Z" fill="#FEC4AD"/>
<path d="M128.503 131.304C128.503 131.304 86.9901 124.255 82.4754 123.704C78.0708 123.263 69.4818 123.153 70.2526 126.898C71.0234 130.754 85.7788 132.516 91.5048 132.516C126.631 132.626 128.503 131.304 128.503 131.304Z" fill="#F4BBA6"/>
<path d="M70.3624 127.008C71.5737 129.322 75.2075 132.406 82.2549 132.957C88.3112 133.508 124.869 133.948 128.833 132.957C128.833 132.957 138.303 137.473 144.58 133.067C144.58 133.067 150.636 134.058 153.499 134.389C153.719 134.389 153.83 134.389 154.05 134.389C147.443 133.728 144.029 131.194 144.029 131.194C137.863 135.711 128.613 131.304 128.613 131.304C124.649 132.296 86.3291 131.084 80.2728 130.533C75.4277 130.203 72.2344 128.661 70.3624 127.008Z" fill="#EFB39E"/>
<path d="M158.234 104.977C158.234 104.977 156.693 106.63 155.371 112.027C155.371 112.027 154.711 107.291 155.812 101.342C155.812 101.342 153.499 105.418 153.72 109.384C154.05 114.23 155.812 115.552 153.499 121.17C153.499 121.17 155.482 119.187 156.142 118.637C156.803 118.086 158.234 104.977 158.234 104.977Z" fill="#EFB39E"/>
<path d="M109.013 122.382C114.849 123.483 120.355 124.695 124.099 125.356C129.935 126.458 133.789 126.898 138.084 125.356C140.176 124.585 142.598 124.475 144.58 124.585C152.068 124.805 151.628 113.239 151.407 110.595C151.187 110.155 150.967 109.714 150.747 109.163C145.571 116.544 132.468 123.704 109.013 122.382Z" fill="#F4BBA6"/>
<path d="M152.509 122.162C152.509 122.162 154.931 115.883 151.408 110.265C151.408 110.265 151.518 123.263 140.176 124.915C140.176 124.915 143.7 124.144 149.426 125.466C149.315 125.466 151.298 124.255 152.509 122.162Z" fill="#EFB39E"/>
<path d="M79.6124 121.17C88.4216 117.205 113.418 123.373 124.099 125.356C129.935 126.458 133.789 126.898 138.083 125.356C143.039 123.594 149.315 125.356 149.315 125.356L156.252 127.449C156.252 127.449 147.553 125.466 144.36 125.356C139.295 125.246 137.863 127.559 131.697 127.449C121.126 127.229 106.701 122.272 94.478 121.06C83.5766 120.069 79.6124 121.17 79.6124 121.17Z" fill="#FFE0BB"/>
<path d="M152.178 112.909C152.178 112.909 152.178 112.358 151.848 111.256C151.628 110.816 151.518 110.155 151.187 109.494C150.967 108.833 150.526 108.062 150.086 107.291C149.535 106.52 149.095 105.749 148.324 104.978C147.994 104.647 147.664 104.206 147.223 103.766C146.783 103.435 146.342 102.995 145.902 102.664C145.461 102.224 144.911 102.003 144.47 101.673C143.92 101.342 143.479 101.012 142.929 100.792C141.827 100.351 140.726 99.6901 139.625 99.3596L137.863 98.8088C137.313 98.5885 136.652 98.5885 136.101 98.4784C135.551 98.3682 134.89 98.2581 134.34 98.1479C133.789 98.0378 133.238 98.0378 132.578 98.0378C131.477 98.0378 130.375 97.8174 129.384 97.9276C128.393 97.9276 127.402 98.0378 126.521 98.1479C125.641 98.1479 124.87 98.3682 124.099 98.4784C123.438 98.5885 122.778 98.6987 122.227 98.8088C121.236 99.0291 120.685 99.1393 120.685 99.1393C120.685 99.1393 121.236 99.1393 122.337 99.1393C122.888 99.1393 123.438 99.1393 124.209 99.1393C124.87 99.1393 125.751 99.0291 126.632 99.1393C127.512 99.1393 128.393 99.2495 129.495 99.2495C130.045 99.2495 130.486 99.3596 131.036 99.3596C131.587 99.4698 132.027 99.4698 132.578 99.5799C133.128 99.6901 133.679 99.6901 134.229 99.8002C134.78 99.9104 135.331 100.021 135.881 100.131C136.432 100.241 136.982 100.351 137.533 100.461L139.185 101.012C140.286 101.342 141.277 101.893 142.268 102.224C142.818 102.444 143.259 102.774 143.699 102.995C144.14 103.325 144.69 103.545 145.021 103.876C145.461 104.206 145.902 104.537 146.232 104.757C146.672 105.088 147.003 105.418 147.333 105.749C147.664 106.079 147.994 106.41 148.324 106.74C148.655 107.07 148.985 107.401 149.205 107.731C149.756 108.392 150.196 109.053 150.526 109.604C150.967 110.155 151.187 110.706 151.407 111.146C151.628 111.587 151.848 111.917 151.958 112.248C152.178 112.798 152.178 112.909 152.178 112.909Z" fill="#FFE0BB"/>
<path d="M64.6372 107.731C64.6372 107.731 65.8484 116.434 70.9137 122.382C71.244 122.162 76.0891 118.416 79.833 117.425C89.9636 114.671 97.8918 116.213 107.582 114.671C121.897 112.358 129.825 106.409 130.266 106.189C129.164 106.409 80.3836 116.103 64.6372 107.731Z" fill="#F4BBA6"/>
<path d="M68.0504 118.086C68.8213 119.628 69.8123 121.17 70.9134 122.492C71.2438 122.272 76.0888 118.527 79.8327 117.535C89.9633 114.781 97.8916 116.323 107.582 114.781C121.456 112.578 129.384 106.85 130.155 106.299C129.384 106.74 121.236 111.807 107.582 114.01C97.8916 115.552 90.1835 114.781 79.8327 116.213C76.4192 116.654 69.5921 117.645 68.0504 118.086Z" fill="#EFB39E"/>
<path d="M70.9135 122.382C75.7585 115.883 81.8148 114.341 96.5702 113.9C114.629 113.459 130.155 106.079 130.155 106.079C130.155 106.079 122.227 112.248 107.472 114.671C97.7815 116.213 89.8532 114.781 79.7227 117.425C76.0889 118.527 70.9135 122.382 70.9135 122.382Z" fill="#FFE0BB"/>
<path d="M87.6512 101.122C87.2107 101.012 86.6601 100.902 86.2197 100.571C86.1096 100.461 85.9994 100.461 85.8893 100.351C85.559 100.02 85.2286 99.69 85.1185 99.2494C84.8983 98.5885 85.1185 97.9275 85.4489 97.3768C85.7792 96.826 86.2197 96.4955 86.7703 96.1651C88.7523 94.9534 90.9546 94.4026 93.267 94.0721C93.5974 94.0721 93.9277 93.962 94.2581 93.962C94.8087 93.962 96.0199 94.1823 96.3503 94.4026C96.6806 94.5127 96.9008 94.7331 97.1211 95.0635C97.3413 95.394 97.4514 95.8346 97.5615 96.2752C97.7818 97.4869 97.011 98.5885 96.0199 99.5799C95.6896 99.9103 95.2491 100.131 94.9188 100.241C94.4783 100.461 93.9277 100.571 93.4873 100.681C92.276 100.902 90.9546 101.122 89.7434 101.342C89.1928 101.453 88.5321 101.453 87.9815 101.342L87.6512 101.122Z" fill="#4B5887"/>
<path d="M97.5618 96.1651C97.782 97.3768 97.0112 98.4783 96.0202 99.4697C95.6898 99.8002 95.2494 100.02 94.919 100.131C94.4786 100.351 93.928 100.461 93.4875 100.571C92.2763 100.792 90.9549 101.012 89.7436 101.232C89.193 101.342 88.5323 101.342 87.9818 101.232H87.7615C87.3211 101.122 86.7705 101.012 86.33 100.681C86.2199 100.571 86.1098 100.571 85.9997 100.461C85.6694 100.131 85.339 99.8002 85.2289 99.3595V99.2494C85.4491 99.5799 86.1098 99.69 86.5503 99.8002C89.5234 100.02 93.0471 99.2494 95.2494 97.7072C96.9011 96.4955 96.4606 95.394 95.91 94.4026C96.1303 94.5127 96.3505 94.5127 96.4606 94.6229C96.791 94.7331 97.0112 94.9534 97.2314 95.2838C97.3415 95.2838 97.4517 95.7244 97.5618 96.1651Z" fill="#323854"/>
<path d="M91.8359 98.0377C91.8359 98.4783 89.4134 99.2494 87.7617 99.2494C86.6605 99.2494 85.6695 98.9189 85.6695 98.4783C85.6695 98.0377 86.8808 97.7072 87.9819 97.7072C88.9729 97.7072 91.8359 97.5971 91.8359 98.0377Z" fill="#7487B7"/>
<path d="M95.0294 97.0463C94.4788 97.5971 93.8181 97.8174 93.5979 97.5971C93.3776 97.3768 94.2586 96.1651 94.8091 95.6143C95.4698 95.1737 96.6811 95.6143 95.0294 97.0463Z" fill="#7487B7"/>
<path d="M123.439 93.8518C123.989 93.5214 124.43 92.9706 124.65 92.4198C124.87 91.869 124.65 91.2081 124.54 90.6573C124.32 89.8863 124.099 89.005 123.329 88.5644C122.998 88.3441 122.668 88.2339 122.337 88.2339C120.135 87.6832 117.823 88.2339 115.62 88.7847C115.18 88.8949 114.629 89.005 114.189 89.2253C113.749 89.4456 113.418 89.6659 112.978 89.8863C112.537 90.1066 112.097 90.437 111.656 90.6573C111.326 90.8777 110.996 90.9878 110.665 91.2081C110.335 91.4284 110.005 91.7589 109.674 92.1995C109.344 92.6401 109.124 93.1909 109.124 93.7417C109.234 94.6229 110.115 95.394 111.106 95.6143C112.097 95.9448 113.198 95.9448 114.299 95.8346C116.501 95.7245 118.594 95.394 120.686 94.9534C120.686 94.7331 122.888 94.2925 123.439 93.8518Z" fill="#46507C"/>
<path d="M109.123 93.5214C109.233 94.4026 110.114 95.1737 111.105 95.394C112.096 95.7245 113.197 95.7245 114.299 95.6143C116.501 95.5042 118.593 95.1737 120.685 94.7331C120.685 94.7331 122.777 94.2925 123.328 93.8519C123.879 93.5214 124.319 92.9706 124.539 92.4199C124.539 92.3097 124.649 92.0894 124.649 91.9792C124.429 92.1995 124.319 92.3097 124.099 92.4199C123.548 92.7503 121.456 93.3011 121.456 93.3011C119.364 93.8519 117.162 94.0722 115.069 94.1823C113.968 94.1823 112.867 94.1823 111.876 93.962C110.885 93.6316 110.004 92.9706 109.894 92.0894C109.894 91.9792 109.894 91.8691 109.894 91.8691C109.784 91.9792 109.784 91.9792 109.674 92.0894C109.343 92.4199 109.123 92.9706 109.123 93.5214Z" fill="#323854"/>
<path d="M118.153 92.8604C118.373 93.3011 120.906 93.1909 122.557 92.53C123.548 92.1995 124.429 91.5386 124.209 90.9878C123.989 90.5472 122.778 90.6573 121.787 91.098C120.796 91.5386 117.933 92.4198 118.153 92.8604Z" fill="#6F80B5"/>
<path d="M111.215 93.0807C111.876 93.5214 112.867 93.4112 113.087 93.1909C113.308 92.9706 112.096 91.869 111.436 91.4284C110.665 90.8776 109.674 91.9792 111.215 93.0807Z" fill="#6F80B5"/>
<path d="M148.985 97.3768C149.425 97.1565 149.866 96.9362 150.196 96.4956C150.306 96.2752 150.417 95.9448 150.417 95.6143C150.417 94.9534 150.417 94.1823 149.976 93.6315C149.536 93.0808 148.875 92.7503 148.214 92.53C146.012 91.6487 143.81 90.9878 141.717 89.9964C140.837 89.5558 139.845 89.1152 138.965 88.7847C137.974 88.5644 136.872 88.4543 135.991 88.8949C135.771 89.005 135.551 89.1152 135.441 89.3355C135.331 89.5558 135.221 89.7761 135.111 89.9964C134.89 90.437 134.56 90.6574 134.23 91.098C133.899 91.4284 133.679 91.8691 133.789 92.4198C133.899 92.8605 134.119 93.1909 134.45 93.5214C136.212 95.1737 138.744 95.7245 141.167 96.1651C142.929 96.3854 148.434 97.5971 148.985 97.3768Z" fill="#46507C"/>
<path d="M133.569 92.3097C133.569 92.7503 133.899 93.0808 134.23 93.4112C135.991 95.0636 138.524 95.6143 140.947 96.055C142.929 96.3854 148.434 97.7073 148.985 97.3768C149.425 97.1565 149.866 96.9362 150.196 96.4956C150.306 96.2753 150.417 95.9448 150.417 95.7245C150.306 95.8346 150.196 95.8346 150.086 95.9448C149.536 96.1651 144.03 95.6143 142.048 95.2839C139.625 94.8433 137.093 93.6316 135.331 91.9792C135 91.6488 134.67 91.3183 134.67 90.8777C134.67 90.7675 134.67 90.6574 134.67 90.5472C134.45 90.7675 134.34 90.9878 134.119 91.098C133.789 91.4284 133.459 91.8691 133.569 92.3097Z" fill="#323854"/>
<path d="M143.479 94.6229C143.589 94.1823 146.012 93.6315 147.774 93.8519C148.875 93.962 149.866 94.4026 149.756 94.8432C149.646 95.2839 148.434 95.5042 147.333 95.2839C146.342 95.1737 143.369 95.0636 143.479 94.6229Z" fill="#6F80B5"/>
<path d="M136.211 91.9792C136.872 92.4198 137.533 92.53 137.753 92.3097C137.863 92.0894 136.762 90.9878 136.101 90.5472C135.441 90.1066 134.34 90.7675 136.211 91.9792Z" fill="#6F80B5"/>
<path d="M172.22 85.9207C172.22 85.9207 162.75 91.8691 158.565 102.554C154.711 112.358 155.372 117.976 156.473 119.518C157.244 120.509 162.86 127.119 174.202 126.568C182.681 126.237 182.57 123.924 192.591 124.144C192.591 124.144 198.647 119.518 199.528 113.68C201.51 102.554 198.647 83.1669 172.22 85.9207Z" fill="#FEC4AD"/>
<path d="M172.991 124.144C179.928 123.814 181.139 122.272 186.755 121.831C187.746 121.721 188.847 121.501 189.728 121.17C191.6 120.509 192.811 118.747 192.701 116.654C192.591 115.773 192.481 114.781 192.151 113.9C190.169 108.282 187.306 101.453 190.058 94.4027C190.058 94.4027 189.067 92.4199 186.975 91.4285C185.654 90.7676 181.58 88.7848 181.58 88.7848C187.966 89.5559 191.93 93.9621 191.93 93.9621C189.178 101.012 192.151 107.181 194.243 112.799C194.904 114.561 195.014 116.434 194.793 118.086C194.133 122.712 192.811 124.034 192.811 124.034C182.791 123.814 182.901 126.127 174.422 126.458C162.97 126.898 157.354 120.399 156.694 119.408C156.473 119.077 156.253 118.637 156.143 117.866C157.905 119.959 163.411 124.475 172.991 124.144Z" fill="#EFB39E"/>
<path d="M155.813 116.875C156.033 114.121 156.914 110.486 158.676 105.86C162.75 95.1747 172.22 89.2263 172.22 89.2263C193.582 87.0232 199.528 99.3606 200.079 109.935C200.629 98.8098 195.894 83.4983 172.22 85.9217C172.22 85.9217 162.75 91.8701 158.566 102.555C155.923 109.385 155.482 114.121 155.813 116.875Z" fill="#FFE0BB"/>
<path d="M170.237 115.222C170.457 115.222 170.678 114.891 170.237 114.12C169.797 113.349 168.696 111.697 168.585 110.485C168.585 109.274 168.145 109.274 168.035 109.384C167.925 109.494 167.154 110.155 168.035 112.468C168.916 114.561 169.907 115.222 170.237 115.222Z" fill="#EFB39E"/>
<path d="M168.806 113.129C168.806 113.129 169.577 113.459 169.907 114.01C170.238 114.561 170.017 114.671 169.797 114.671C169.577 114.671 169.026 114.01 168.806 113.129Z" fill="#5B412C"/>
<path d="M168.145 111.807C168.145 111.807 168.475 111.036 168.365 110.375C168.255 109.714 167.925 109.824 167.815 109.934C167.815 110.155 167.815 110.926 168.145 111.807Z" fill="#5B412C"/>
<path d="M172.88 111.697L170.678 113.57C170.457 113.79 170.237 113.79 170.017 113.57C169.687 113.349 169.356 112.909 169.136 112.248C168.916 111.587 168.916 111.146 168.916 110.816C168.916 110.595 169.136 110.375 169.356 110.375L171.889 110.045C171.889 110.045 173.761 109.934 172.88 111.697Z" fill="url(#paint0_linear)"/>
<path d="M166.934 119.408C166.934 119.408 167.154 116.764 166.604 115.883C166.053 115.002 165.282 114.231 165.282 113.68C165.282 113.019 165.392 111.917 164.512 111.036C163.631 110.155 163.08 108.833 163.08 108.833C163.08 108.833 162.75 109.384 162.199 109.714C161.649 109.934 158.565 111.367 159.887 115.002C161.428 119.298 163.631 119.628 165.172 119.518C166.714 119.187 166.934 119.408 166.934 119.408Z" fill="#FF5A5A"/>
<path d="M168.035 120.619C168.035 120.619 167.374 119.738 166.604 118.857C165.833 117.976 165.392 117.205 165.282 116.874C165.172 116.323 164.511 116.213 164.181 115.773C163.961 115.442 163.3 114.341 163.41 113.79C163.52 113.239 163.52 113.019 163.3 112.468C162.75 111.477 162.64 110.155 163.52 107.841C163.52 107.841 162.97 108.723 162.75 109.824C162.529 110.926 162.64 111.256 162.86 112.027C163.08 112.798 163.19 112.798 163.19 113.68C163.19 114.561 163.961 115.773 164.732 116.764C165.062 117.094 165.613 118.086 166.273 118.857C167.044 119.738 168.035 120.619 168.035 120.619Z" fill="#CC3636"/>
<path d="M167.925 120.509C167.925 120.509 167.375 121.28 166.934 121.06C166.494 120.84 167.375 120.289 167.265 119.959C167.154 119.518 167.925 120.509 167.925 120.509Z" fill="#FF5A5A"/>
<path d="M163.3 107.731C163.3 107.731 163.41 107.401 163.19 107.401C162.97 107.291 162.309 107.291 162.199 107.401C162.089 107.621 162.75 107.842 162.86 108.062L162.97 108.282C163.19 108.172 163.3 107.952 163.3 107.731Z" fill="#FF5A5A"/>
<path d="M164.621 118.306C164.842 118.196 164.732 117.645 163.741 116.323C162.309 114.561 162.529 112.248 162.309 111.917C162.089 111.477 161.758 111.367 161.428 111.587C161.098 111.807 160.547 113.349 161.428 115.442C162.089 116.984 163.741 118.857 164.621 118.306Z" fill="#FF8080"/>
<path d="M162.309 113.68C162.419 113.68 162.419 113.459 162.309 113.019C162.199 112.358 162.199 112.027 162.199 111.807C162.199 111.697 162.089 111.587 161.979 111.697C161.869 111.697 161.648 112.138 161.758 112.688C161.758 113.129 161.979 113.79 162.309 113.68Z" fill="#FFC2C2"/>
<path d="M183.451 112.027C183.451 112.027 185.323 112.578 186.424 114.781C187.525 116.874 188.516 118.196 189.067 118.857C189.618 119.518 189.287 119.959 188.186 119.959C187.195 119.959 186.204 119.738 185.103 118.747C185.103 118.747 186.094 118.527 186.094 117.866C186.094 116.874 184.993 115.552 184.773 113.9C184.773 113.349 184.112 112.358 183.451 112.027Z" fill="#EFB39E"/>
<path d="M180.258 110.375C180.258 110.375 179.817 113.79 181.8 116.213C183.782 118.637 184.993 118.857 185.433 119.077C185.984 119.408 186.094 120.069 186.094 120.069C186.094 120.069 185.654 119.298 185.103 119.077C184.662 118.967 177.945 117.205 180.258 110.375Z" fill="#5B412C"/>
<path d="M184.662 118.967C184.662 118.967 185.103 119.738 185.103 120.069C185.103 120.069 184.112 118.747 183.892 118.747C183.671 118.747 184.332 119.408 184.112 120.179C184.112 120.179 183.561 118.637 182.9 118.416C182.9 118.416 183.231 119.188 183.121 119.848C183.121 119.848 182.79 118.306 182.35 117.976C182.02 117.755 181.909 117.755 182.02 118.196C182.13 118.637 182.24 119.077 182.35 119.518C182.35 119.518 181.689 118.527 181.579 117.976C181.579 117.425 181.469 117.315 181.359 117.535C181.249 117.645 181.139 118.747 181.249 119.298C181.249 119.298 180.918 117.866 181.029 117.205C181.249 116.544 180.808 116.874 180.698 117.205C180.588 117.535 180.368 118.306 180.368 118.967C180.368 118.967 180.258 117.755 180.478 116.654C180.588 115.663 179.597 117.755 179.597 118.086C179.597 118.086 179.817 116.874 180.368 116.103C180.808 115.222 179.046 117.095 179.046 117.095C179.046 117.095 179.597 115.993 180.038 115.663C180.478 115.222 179.046 115.773 178.606 116.323C178.606 116.323 179.157 115.332 179.707 115.112C180.148 114.891 178.826 115.112 178.826 115.112C178.826 115.112 179.377 114.671 179.707 114.561C180.037 114.451 179.707 114.01 178.936 114.231C178.936 114.231 179.377 113.9 179.597 113.79C179.927 113.68 178.606 113.57 178.606 113.57C178.606 113.57 178.936 113.349 179.597 113.349C180.148 113.349 179.377 112.909 178.936 112.909C178.936 112.909 179.157 112.688 179.597 112.688C180.037 112.688 179.487 112.358 179.157 112.358C179.157 112.358 179.597 112.138 179.707 112.138L180.478 115.552L182.46 117.755L184.662 118.967Z" fill="#5B412C"/>
<path d="M189.838 120.179C189.728 117.535 189.177 114.451 187.415 112.358C186.975 111.807 186.314 111.146 185.763 110.816C185.543 110.706 185.323 110.485 185.103 110.375C185.103 110.375 184.883 110.265 185.103 110.375H184.993C184.883 110.375 184.883 110.375 184.772 110.375C183.892 110.265 184.332 108.943 185.103 109.163C185.984 109.274 186.975 110.155 187.525 110.816C188.847 112.138 189.617 114.01 189.948 115.883C190.278 117.425 190.278 118.967 190.058 120.509C190.168 120.289 189.838 120.289 189.838 120.179Z" fill="#5B412C"/>
<path d="M174.862 99.1393C174.862 99.1393 172.66 95.6144 171.779 95.8347C170.898 96.055 170.677 99.9104 170.677 99.9104C170.677 99.9104 170.347 97.487 170.457 96.3855C170.567 95.2839 170.788 92.8605 171.999 92.8605C172.66 92.8605 173.43 93.5214 173.761 94.5128C174.531 96.4956 174.862 99.1393 174.862 99.1393Z" fill="#EFB39E"/>
<path d="M175.633 104.317C175.633 104.317 172.439 102.995 171.338 100.021C170.237 97.0464 170.678 95.9448 170.568 95.3941C170.568 94.7331 170.017 94.2925 170.017 94.2925C170.017 94.2925 170.457 95.0636 170.347 95.6144C170.347 96.1651 168.585 102.885 175.633 104.317Z" fill="#5B412C"/>
<path d="M170.347 96.1651C170.347 96.1651 169.907 95.394 169.576 95.1737C169.576 95.1737 170.237 96.6057 170.127 96.8261C170.017 97.0464 169.797 96.055 169.026 95.9448C169.026 95.9448 170.017 97.1565 170.017 97.8175C170.017 97.8175 169.576 97.1565 168.916 96.9362C168.916 96.9362 170.127 98.0378 170.127 98.4784C170.127 98.919 170.017 99.0292 169.797 98.6987C169.466 98.3682 169.136 98.1479 168.806 97.7073C168.806 97.7073 169.356 98.8088 169.797 99.1393C170.237 99.4698 170.237 99.4698 170.127 99.4698C170.017 99.4698 169.026 99.0292 168.585 98.6987C168.585 98.6987 169.686 99.6901 170.347 99.9104C171.008 100.131 170.567 100.241 170.237 100.241C169.907 100.131 169.026 100.021 168.475 99.5799C168.475 99.5799 169.576 100.241 170.457 100.681C171.338 101.122 169.026 100.792 168.806 100.681C168.806 100.681 169.907 101.012 170.898 101.122C171.889 101.122 169.466 101.783 169.466 101.783C169.466 101.783 170.678 101.783 171.228 101.673C171.779 101.453 170.678 102.554 170.017 102.554C170.017 102.554 171.118 102.554 171.558 102.224C171.999 101.893 171.118 102.995 171.118 102.995C171.118 102.995 171.779 102.774 171.999 102.554C172.219 102.334 172.439 102.774 171.889 103.325C171.889 103.325 172.439 103.105 172.66 102.885C172.88 102.664 172.329 103.876 172.329 103.876C172.329 103.876 172.66 103.656 172.99 103.215C173.32 102.774 173.32 103.656 172.99 103.986C172.99 103.986 173.32 103.876 173.43 103.546C173.651 103.215 173.651 103.876 173.54 104.096C173.54 104.096 173.871 103.766 173.981 103.656L171.448 101.342L170.567 98.5885L170.347 96.1651Z" fill="#5B412C"/>
<path d="M172.88 91.2082C175.082 92.3097 177.065 93.8519 178.386 95.9448C179.157 97.2667 179.817 98.6987 179.817 100.241C179.817 100.681 179.707 101.232 179.597 101.673C179.267 102.444 178.166 101.783 178.496 101.012C178.386 101.232 178.496 101.012 178.496 100.902V100.792C178.496 100.571 178.496 100.902 178.496 100.792C178.496 100.571 178.496 100.241 178.496 100.021C178.496 99.2495 178.276 98.5885 178.056 97.8174C177.175 95.1737 174.972 93.0808 172.77 91.5386C172.66 91.3183 172.77 91.098 172.88 91.2082Z" fill="#5B412C"/>
<path d="M191.93 94.0726C191.93 94.0726 187.966 89.6664 181.579 88.8953C175.193 88.1243 171.889 87.1329 172.33 85.3704C172.66 83.4978 178.826 78.2103 187.195 77.8799C195.564 77.5494 208.668 80.1931 213.623 88.7852C218.578 97.3773 212.412 101.123 221.111 112.468C221.111 112.468 236.196 118.086 238.509 122.933C240.931 127.78 234.655 135.381 213.843 132.406L192.591 124.035C192.591 124.035 196.115 118.417 194.022 112.909C192.15 107.401 189.177 101.233 191.93 94.0726Z" fill="#5E3121"/>
<path d="M221.111 112.468C221.111 112.468 224.745 117.205 231.792 122.492C231.792 122.492 227.167 117.425 225.846 114.451C225.956 114.451 222.322 112.909 221.111 112.468Z" fill="#51281C"/>
<path d="M207.126 115.332C207.126 115.332 206.355 108.833 204.373 103.105C204.373 103.105 204.924 114.01 203.712 117.866L207.126 115.332Z" fill="#51281C"/>
<path d="M208.337 84.1583C208.337 84.1583 205.034 91.098 194.133 93.6316C194.133 93.6316 192.04 93.962 191.49 95.0636C191.49 95.0636 190.939 94.1823 191.159 93.4113C191.49 92.7503 200.629 92.0894 208.337 84.1583Z" fill="#774131"/>
<path d="M209.989 88.234C209.989 88.234 211.531 90.3269 211.971 94.1823C211.971 94.1823 211.09 92.3097 210.319 91.4285C210.319 91.4285 211.421 94.6229 211.2 97.1565C211.2 97.1565 210.65 94.1823 209.108 92.0894C209.108 92.0894 210.65 97.5971 209.328 102.444C209.328 102.444 209.438 98.1479 207.567 96.3854C207.567 96.3854 208.117 100.792 208.117 103.215C208.117 103.215 207.016 97.7073 204.704 95.6143C204.704 95.6143 205.364 100.021 205.805 101.673C205.805 101.673 202.832 94.2925 202.942 92.9706C203.052 91.6488 203.933 92.1995 204.043 92.3097C204.153 92.4199 204.593 93.3011 204.593 93.3011V91.4285C204.593 91.4285 206.025 92.7503 206.575 95.394C206.575 95.394 206.906 93.3011 206.025 90.6574C206.025 90.6574 207.567 92.1995 208.007 94.5128C208.007 94.5128 208.447 90.7675 207.456 89.1152C207.456 89.1152 208.778 89.3355 209.659 89.7761C209.659 89.7761 208.558 88.234 207.567 87.7933C207.567 87.7933 208.447 87.573 208.998 87.573C208.998 87.573 208.558 86.6918 208.117 86.5816C208.117 86.5816 209.108 86.3613 209.879 86.3613C209.879 86.3613 209.328 85.1496 208.778 84.9293C208.778 84.9293 210.099 85.2598 211.31 86.2512C212.522 87.3527 213.292 88.8949 213.292 88.8949C213.292 88.8949 211.751 87.6832 211.2 87.6832C211.2 87.6832 212.412 88.6746 212.962 90.4371C212.742 90.3269 211.31 88.7847 209.989 88.234Z" fill="#51281C"/>
<path d="M200.959 93.1909C200.959 93.1909 201.95 94.8432 202.171 97.2667C202.391 99.6901 201.84 102.664 201.84 102.664C201.84 102.664 201.84 98.5885 201.4 97.487C201.4 97.487 201.62 103.105 199.198 107.07C199.198 107.07 199.308 103.766 198.647 101.563C198.647 101.563 198.537 107.952 197.326 111.587C197.326 111.587 197.876 106.189 195.674 103.215C195.674 103.215 195.233 105.088 196.004 112.468C196.004 112.468 194.022 106.299 193.361 104.317C192.701 102.334 192.811 98.3682 193.141 96.0549C193.141 96.0549 193.472 99.9104 194.683 102.334C194.683 102.334 194.463 99.6901 195.233 97.3768C195.233 97.3768 195.233 99.8002 196.335 102.003L196.555 95.9448C196.555 95.9448 197.326 100.902 197.326 103.766C197.326 103.766 197.986 98.8088 197.766 95.394C197.766 95.394 198.977 98.1479 199.198 100.571C199.198 100.571 199.968 97.1565 199.968 95.8346C199.968 95.8346 200.519 96.7159 200.519 98.1479C200.629 98.1479 201.18 96.2753 200.959 93.1909Z" fill="#51281C"/>
<path d="M190.939 92.8605C190.939 92.8605 189.838 89.4457 186.535 88.234C186.535 88.234 189.508 88.3441 191.6 90.9878C191.6 90.9878 191.71 88.8949 191.27 88.1238C191.27 88.1238 191.82 88.3441 192.701 89.2254C192.701 89.2254 192.151 87.0223 191.16 86.0309C191.16 86.0309 192.04 86.2512 193.142 86.8019C193.142 86.8019 192.041 85.1496 189.948 84.5989C189.948 84.5989 192.921 84.3785 195.124 87.9035C195.124 87.9035 195.344 84.4887 192.04 81.9551C192.04 81.9551 196.335 84.5989 197.436 86.5816L196.115 81.4044C196.115 81.4044 198.978 84.709 199.859 84.5989L199.088 82.5059L200.519 84.0481C200.519 84.0481 200.85 82.6161 200.519 81.845C200.519 81.845 201.731 82.8364 202.281 84.1582C202.281 84.1582 202.171 81.7348 201.841 80.7434C201.841 80.7434 202.722 81.845 202.942 83.3871C202.942 83.3871 203.603 81.845 203.603 80.9637C203.603 80.9637 204.704 82.2856 204.814 83.277L205.805 81.7348C205.805 81.7348 206.025 84.0481 205.254 85.3699C205.254 85.3699 204.924 84.4887 204.704 84.1582C204.704 84.1582 204.043 86.0309 203.603 86.5816C203.603 86.5816 202.391 85.5902 202.171 85.1496C202.171 85.1496 202.501 86.5816 202.942 87.4629C202.942 87.4629 201.51 86.141 201.18 85.3699C201.18 85.3699 201.731 86.8019 201.731 88.8949C201.731 88.8949 201.07 88.3441 200.629 87.9035C200.629 87.9035 200.629 88.6746 200.299 89.666C200.299 89.666 199.969 88.5644 199.308 87.7933C199.308 87.7933 199.638 89.005 199.418 89.9964C199.418 89.9964 199.418 89.5558 198.758 89.1152C198.758 89.1152 198.097 89.3355 197.987 90.8777C197.987 90.8777 196.335 90.1066 196.005 89.9964C196.005 89.9964 195.674 90.4371 195.234 90.9878C195.234 90.9878 194.243 88.7847 193.472 88.234C193.472 88.234 194.463 90.2167 194.463 91.7589C194.463 91.7589 193.582 91.6488 193.472 91.6488C193.362 91.6488 192.811 92.1995 192.591 92.3097C192.371 92.4198 191.82 92.3097 191.6 92.4198C191.27 92.53 190.939 92.8605 190.939 92.8605Z" fill="#51281C"/>
<path d="M175.413 81.1841C173.541 82.3958 172.55 85.0395 172.55 85.0395C172.55 85.0395 175.633 85.7004 177.946 84.9293C180.148 84.1582 181.469 82.5059 180.588 81.1841C179.597 79.8622 177.285 79.9724 175.413 81.1841Z" fill="#FEFFFF"/>
<path d="M173.871 82.6161C172.99 83.7176 172.55 84.9293 172.55 84.9293C172.55 84.9293 173.981 85.2598 175.633 85.1496C175.853 84.9293 176.074 84.4887 176.294 84.2684C176.404 84.1582 176.294 84.0481 176.184 84.0481H175.413C175.303 84.0481 175.193 83.9379 175.303 83.8278L175.743 83.3872C175.853 83.277 175.743 83.1668 175.633 83.1668L174.972 83.277C174.862 83.277 174.752 83.1668 174.862 83.0567L175.193 82.7262C175.303 82.6161 175.193 82.5059 175.082 82.5059L173.871 82.6161Z" fill="#FEF380"/>
<path d="M173.101 83.7176C172.99 83.9379 172.88 84.1583 172.77 84.2684C172.55 84.709 172.44 84.9293 172.44 84.9293C172.44 84.9293 172.77 85.0395 173.321 85.0395C173.541 85.0395 174.092 85.1496 174.092 85.1496L174.532 84.5989C174.642 84.4887 174.532 84.3786 174.422 84.3786L173.761 84.4887C173.651 84.4887 173.541 84.3786 173.651 84.2684L174.092 83.8278C174.202 83.7176 174.092 83.6075 173.981 83.6075L173.101 83.7176Z" fill="#F8D75B"/>
<path opacity="0.2" d="M177.395 84.2684C175.193 85.0394 172.66 84.9293 172.55 84.9293C172.55 84.9293 172.66 84.9293 172.88 84.9293H172.99C173.871 84.9293 175.963 84.9293 177.615 84.3785C177.835 84.2684 178.056 84.2684 178.276 84.1582C179.928 83.277 180.919 81.9551 180.148 80.7434C180.148 80.6333 180.038 80.6333 180.038 80.5231C180.588 81.9551 179.487 83.6074 177.395 84.2684Z" fill="#9B9B9B"/>
<path d="M177.505 84.5989C175.303 85.3699 172.66 85.0395 172.55 85.0395C172.77 85.0395 175.743 85.7004 177.946 84.9293C180.148 84.1582 181.469 82.5059 180.588 81.184C180.478 80.9637 180.258 80.7434 180.038 80.6333C180.038 80.7434 180.148 80.7434 180.148 80.8536C181.029 82.1754 179.707 83.8278 177.505 84.5989Z" fill="#FEFFFF"/>
<path d="M169.026 81.845C169.797 83.6075 172.55 84.9293 172.55 84.9293C172.55 84.9293 174.532 82.7262 174.422 80.7435C174.311 78.8708 172.88 77.4388 171.008 77.8794C169.136 78.32 168.365 80.1927 169.026 81.845Z" fill="#FEFFFF"/>
<path d="M170.237 83.4974C171.228 84.4888 172.55 85.0395 172.55 85.0395C172.55 85.0395 173.431 84.0481 173.981 82.7263C173.761 82.506 173.431 82.1755 173.21 81.9552C173.1 81.8451 172.99 81.9552 172.99 81.9552L172.66 82.6161C172.66 82.7263 172.44 82.7263 172.44 82.6161L171.999 82.1755C171.889 82.0654 171.779 82.1755 171.779 82.2857L171.669 82.8364C171.669 82.9466 171.449 82.9466 171.449 82.9466L171.008 82.506C170.898 82.3958 170.788 82.506 170.788 82.6161L170.237 83.4974Z" fill="#FEF380"/>
<path d="M171.338 84.2684C171.559 84.3786 171.779 84.4887 171.889 84.5989C172.33 84.8192 172.55 84.9293 172.55 84.9293C172.55 84.9293 172.77 84.709 172.99 84.2684C173.1 84.0481 173.321 83.7176 173.321 83.7176L172.88 83.277C172.77 83.1669 172.66 83.277 172.66 83.3872L172.55 83.9379C172.55 84.0481 172.33 84.0481 172.33 84.0481L171.889 83.6075C171.779 83.4973 171.669 83.6075 171.669 83.7176L171.338 84.2684Z" fill="#F8D75B"/>
<path opacity="0.2" d="M173.541 81.0739C173.651 82.9465 172.66 84.8192 172.55 85.0395C172.55 85.0395 172.66 84.9293 172.66 84.8192V84.709C173.1 84.0481 173.761 82.5059 173.761 80.9638C173.761 80.7434 173.761 80.6333 173.651 80.413C173.321 78.8708 171.999 77.8794 170.347 78.2099C170.237 78.2099 170.127 78.2099 170.127 78.32C171.889 78.0997 173.431 79.3114 173.541 81.0739Z" fill="#9B9B9B"/>
<path d="M173.871 81.0739C173.981 82.9465 172.66 84.9293 172.55 85.0395C172.66 84.9293 174.532 82.7262 174.422 80.8536C174.312 78.981 172.88 77.549 171.008 77.9896C170.678 78.0997 170.458 78.0997 170.237 78.3201C170.348 78.3201 170.458 78.3201 170.458 78.2099C172.33 77.7693 173.871 79.2013 173.871 81.0739Z" fill="#FEFFFF"/>
<path d="M167.595 86.9121C169.907 86.802 172.55 84.9293 172.55 85.0395C172.55 85.0395 170.678 82.9465 168.365 82.6161C166.163 82.1755 163.961 83.0567 163.631 84.5989C163.41 86.0309 165.282 87.0223 167.595 86.9121Z" fill="#FEFFFF"/>
<path d="M169.908 86.3614C171.449 85.8106 172.55 84.9293 172.55 84.9293C172.55 84.9293 171.669 83.9379 170.348 83.277C170.018 83.3872 169.467 83.6075 169.137 83.7176C169.027 83.7176 169.027 83.8278 169.137 83.9379L169.797 84.2684C169.908 84.2684 169.908 84.4887 169.797 84.4887L169.137 84.709C169.027 84.709 169.027 84.9293 169.137 84.9293L169.687 85.1496C169.797 85.1496 169.797 85.37 169.687 85.37L169.027 85.5903C168.917 85.5903 168.917 85.8106 169.027 85.8106L169.908 86.3614Z" fill="#FEF380"/>
<path d="M171.229 85.8106C171.449 85.7004 171.669 85.5903 171.89 85.4801C172.33 85.2598 172.55 85.0395 172.55 85.0395C172.55 85.0395 172.33 84.8192 172 84.4887C171.89 84.3786 171.449 84.0481 171.449 84.0481L170.678 84.2684C170.568 84.2684 170.568 84.4887 170.678 84.4887L171.229 84.8192C171.339 84.8192 171.339 85.0395 171.229 85.0395L170.568 85.2598C170.458 85.2598 170.458 85.4801 170.568 85.4801L171.229 85.8106Z" fill="#F8D75B"/>
<path opacity="0.2" d="M168.255 83.2774C170.458 83.718 172.44 84.9297 172.55 84.9297C172.55 84.9297 172.44 84.8196 172.33 84.7094C172.33 84.7094 172.219 84.7094 172.219 84.5993C171.559 84.1586 170.017 83.1672 168.255 82.8368C168.035 82.8368 167.815 82.7266 167.595 82.7266C165.723 82.6165 163.961 83.3876 163.741 84.7094C163.741 84.8196 163.741 84.8196 163.741 84.9297C164.181 83.8282 166.163 82.9469 168.255 83.2774Z" fill="#9B9B9B"/>
<path d="M168.476 83.0567C170.678 83.4973 172.55 84.9293 172.66 85.0395C172.55 84.9293 170.678 82.9465 168.476 82.6161C166.273 82.1755 164.071 83.0567 163.741 84.5989C163.741 84.8192 163.741 85.0395 163.741 85.2598C163.741 85.1496 163.741 85.1496 163.741 85.0395C163.961 83.3872 166.163 82.6161 168.476 83.0567Z" fill="#FEFFFF"/>
<path d="M172.991 89.3355C173.762 87.4629 172.55 85.0395 172.55 85.0395C172.55 85.0395 169.357 86.0309 168.036 87.6832C166.714 89.3355 166.825 91.2081 168.586 91.7589C170.348 92.3097 172.22 91.098 172.991 89.3355Z" fill="#FEFFFF"/>
<path d="M173.211 87.3527C173.101 86.0309 172.55 84.9293 172.55 84.9293C172.55 84.9293 171.119 85.3699 169.687 86.141C169.687 86.3613 169.797 86.9121 169.797 87.1324C169.797 87.2426 169.907 87.2426 170.017 87.2426L170.788 86.9121C170.898 86.802 171.008 86.9121 171.008 87.0223V87.573C171.008 87.6832 171.119 87.6832 171.229 87.6832L171.779 87.3527C171.889 87.2426 171.999 87.3527 171.999 87.4629V88.0137C171.999 88.1238 172.11 88.1238 172.22 88.1238L173.211 87.3527Z" fill="#FEF380"/>
<path d="M172.991 86.2512C172.881 86.0309 172.881 85.8105 172.77 85.7004C172.66 85.2598 172.55 85.0395 172.55 85.0395C172.55 85.0395 172.22 85.1496 171.669 85.3699C171.449 85.4801 171.009 85.7004 171.009 85.7004V86.3613C171.009 86.4715 171.119 86.4715 171.229 86.4715L171.779 85.9207C171.89 85.8105 172 85.9207 172 86.0308V86.5816C172 86.6918 172.11 86.6918 172.22 86.6918L172.991 86.2512Z" fill="#F8D75B"/>
<path opacity="0.2" d="M168.916 87.9035C170.238 86.2512 172.33 85.1496 172.55 85.0395C172.55 85.0395 172.44 85.1496 172.22 85.1496H172.11C171.339 85.5902 169.577 86.4715 168.586 87.7933C168.476 87.9035 168.366 88.1238 168.256 88.3441C167.375 89.7761 167.705 91.3183 169.247 91.8691C169.357 91.8691 169.357 91.8691 169.467 91.9792C168.036 91.2081 167.705 89.3355 168.916 87.9035Z" fill="#9B9B9B"/>
<path d="M168.697 87.6832C170.018 86.0309 172.44 85.0395 172.551 84.9293C172.33 85.0395 169.357 85.9207 168.036 87.573C166.714 89.2254 166.825 91.098 168.586 91.6488C168.917 91.7589 169.137 91.7589 169.467 91.7589C169.357 91.7589 169.247 91.7589 169.247 91.6488C167.485 91.2081 167.375 89.3355 168.697 87.6832Z" fill="#FEFFFF"/>
<path d="M177.836 85.7005C175.964 84.7091 172.55 85.0395 172.55 85.0395C172.55 85.0395 172.55 87.6833 173.982 89.1153C175.413 90.5473 177.725 90.8777 179.047 89.666C180.368 88.4543 179.708 86.6919 177.836 85.7005Z" fill="#FEFFFF"/>
<path d="M175.633 85.0395C174.092 84.8192 172.55 84.9294 172.55 84.9294C172.55 84.9294 172.55 86.1411 172.99 87.3528C173.321 87.3528 173.871 87.4629 174.202 87.4629C174.312 87.4629 174.422 87.3528 174.422 87.2426L174.202 86.6918C174.202 86.5817 174.312 86.4715 174.422 86.5817L175.083 86.6918C175.193 86.6918 175.303 86.5817 175.303 86.4715L175.083 86.0309C175.083 85.9208 175.193 85.8106 175.303 85.8106L176.074 85.9208C176.184 85.9208 176.294 85.8106 176.294 85.7005L175.633 85.0395Z" fill="#FEF380"/>
<path d="M174.201 84.9294C173.871 84.9294 173.651 84.9294 173.431 84.9294C172.88 84.9294 172.55 84.9294 172.55 84.9294C172.55 84.9294 172.55 85.2599 172.66 85.7005C172.66 85.9208 172.77 86.2512 172.77 86.2512L173.541 86.3614C173.651 86.3614 173.761 86.2512 173.761 86.1411L173.541 85.7005C173.541 85.5903 173.651 85.4802 173.761 85.4802L174.532 85.5903C174.642 85.5903 174.752 85.4802 174.752 85.37L174.201 84.9294Z" fill="#F8D75B"/>
<path opacity="0.2" d="M174.642 88.4545C173.211 87.0225 172.55 85.1499 172.55 85.0397C172.55 85.0397 172.55 85.1499 172.55 85.26V85.3702C172.77 86.0311 173.211 87.6835 174.422 88.6748C174.532 88.785 174.752 88.8952 174.862 89.1155C176.294 90.1069 178.166 90.217 179.377 89.2256C179.487 89.1155 179.487 89.1155 179.597 89.0053C178.276 89.9967 175.963 89.7764 174.642 88.4545Z" fill="#9B9B9B"/>
<path d="M174.312 88.6746C172.88 87.3527 172.55 85.1496 172.55 85.0395C172.55 85.1496 172.66 87.7934 173.982 89.1152C175.413 90.5472 177.725 90.8777 179.047 89.666C179.267 89.4457 179.377 89.2254 179.487 89.0051C179.487 89.1152 179.377 89.1152 179.267 89.2254C178.056 90.3269 175.743 89.9964 174.312 88.6746Z" fill="#FEFFFF"/>
<path opacity="0.2" d="M177.395 84.2684C175.193 85.0395 172.66 84.9293 172.55 84.9293C172.55 84.9293 172.66 84.9293 172.88 84.9293H172.99C173.871 84.9293 175.963 84.9293 177.615 84.3785C177.835 84.2684 178.056 84.2684 178.276 84.1582C179.928 83.277 180.919 81.9551 180.148 80.7434C180.148 80.6333 180.038 80.6333 180.038 80.5231C180.588 81.9551 179.487 83.6075 177.395 84.2684Z" fill="#9B9B9B"/>
<path d="M177.505 84.5989C175.303 85.37 172.66 85.0395 172.55 85.0395C172.77 85.0395 175.743 85.7004 177.946 84.9293C180.148 84.1583 181.469 82.5059 180.588 81.1841C180.478 80.9638 180.258 80.7435 180.038 80.6333C180.038 80.7435 180.148 80.7435 180.148 80.8536C181.029 82.1755 179.707 83.8278 177.505 84.5989Z" fill="#FEFFFF"/>
<path d="M163.52 130.974C163.52 131.855 160.327 133.397 156.693 134.058H204.373C204.483 134.058 204.703 134.058 204.813 134.058C209.328 134.058 220.45 134.499 220.45 123.483C220.45 117.535 216.375 115.002 212.191 114.671C207.126 114.23 203.382 116.654 202.831 119.628C202.501 121.501 202.061 124.695 199.198 123.814C196.335 122.933 192.591 124.034 192.591 124.034C182.68 123.814 182.68 126.127 174.201 126.458C169.356 126.678 165.612 125.576 162.749 124.255L150.307 124.475C149.756 125.026 149.205 125.356 149.205 125.356C149.205 125.356 151.628 126.017 154.381 126.898C157.574 127.89 161.318 129.212 162.749 130.203C163.41 130.533 163.63 130.754 163.52 130.974Z" fill="#F27484"/>
<path d="M154.711 127.008C156.143 127.449 157.684 128 159.116 128.551C159.886 128.771 160.547 129.101 161.318 129.432C161.979 129.762 162.749 130.093 163.3 130.423H163.41L181.689 130.644H190.829H199.968C201.51 130.644 203.052 130.644 204.483 130.533C206.025 130.423 207.566 130.423 208.998 130.313C209.769 130.313 210.539 130.203 211.31 129.983C212.081 129.762 212.852 129.432 213.512 128.991C214.834 128 215.825 126.568 215.935 124.805C216.045 124.365 215.935 123.924 215.935 123.594C215.825 123.153 215.825 122.712 215.605 122.272C215.274 121.501 214.724 120.73 214.063 120.179C213.402 119.628 212.632 119.298 211.751 119.077C211.31 118.967 210.98 118.967 210.429 118.967C210.099 118.967 209.548 119.077 209.218 119.187C207.566 119.738 206.355 121.17 206.135 122.933C206.135 123.153 206.135 123.373 206.135 123.594C206.135 123.814 206.135 123.924 206.245 124.255C206.355 124.695 206.465 125.136 206.795 125.466C207.346 126.127 208.007 126.678 208.777 127.008L208.888 126.237L181.799 126.348L168.255 126.568C163.74 126.678 159.226 126.788 154.711 127.008L154.491 126.898L154.711 127.008ZM155.041 127.008C159.446 127.119 163.851 127.119 168.365 127.119H181.909L208.998 126.898H210.87L209.108 126.237C208.447 126.017 207.897 125.576 207.566 125.026C207.346 124.805 207.236 124.475 207.236 124.144C207.236 124.034 207.236 123.814 207.126 123.594C207.126 123.484 207.126 123.263 207.126 123.153C207.236 121.831 208.337 120.619 209.658 120.289C209.989 120.179 210.209 120.179 210.649 120.179C210.98 120.179 211.31 120.179 211.64 120.289C212.301 120.399 212.962 120.84 213.402 121.17C213.953 121.611 214.283 122.162 214.503 122.712C214.614 123.043 214.724 123.373 214.724 123.594C214.724 124.034 214.724 124.255 214.724 124.585C214.614 125.907 213.953 127.339 212.962 128.33C211.971 129.322 210.429 129.872 208.998 130.093C207.456 130.203 205.914 130.093 204.483 129.983C202.941 129.872 201.4 129.872 199.968 129.872H190.829H181.689L163.41 130.093H163.52C162.86 129.652 162.089 129.322 161.428 129.101C160.657 128.771 159.997 128.551 159.226 128.33C157.794 127.89 156.363 127.449 155.041 127.008Z" fill="#F25A78"/>
<path d="M209.989 122.823C209.989 122.823 210.319 123.153 210.65 123.483C210.76 123.594 210.76 123.594 210.87 123.704C210.98 123.814 211.09 123.814 211.2 123.924C211.311 124.034 211.421 124.255 211.421 124.365C211.421 124.585 211.311 124.695 211.2 124.805C211.09 124.916 210.98 125.026 210.87 125.136C210.76 125.246 210.65 125.356 210.54 125.356C210.319 125.466 210.099 125.576 209.879 125.797C209.659 125.907 209.439 126.127 209.328 126.237C209.218 126.348 209.108 126.458 209.108 126.458V126.568C209.108 126.568 209.218 126.678 209.439 126.788C209.659 126.898 209.879 127.008 210.209 126.898C210.43 126.898 210.54 126.898 210.76 126.788C210.98 126.678 211.2 126.568 211.311 126.458C211.531 126.237 211.641 126.127 211.751 125.907C211.861 125.687 211.861 125.466 211.861 125.136C211.861 124.916 211.861 124.695 211.861 124.475C211.861 124.255 211.861 124.034 211.971 123.814C211.971 123.594 211.971 123.373 211.861 123.153C211.751 122.933 211.531 122.823 211.421 122.712C211.09 122.492 210.76 122.492 210.54 122.602C210.319 122.602 210.209 122.712 210.209 122.712L209.989 122.823Z" fill="#F25A78"/>
<path opacity="0.2" d="M156.693 134.058H163.741C165.282 133.508 166.383 132.736 166.383 132.186C166.383 131.525 164.071 130.423 161.318 129.432C161.428 129.542 161.648 129.542 161.758 129.652C161.869 129.652 161.869 129.762 161.979 129.762C162.089 129.762 162.089 129.872 162.199 129.872C162.309 129.872 162.309 129.983 162.419 129.983C162.529 129.983 162.529 130.093 162.639 130.093C162.75 130.203 162.86 130.203 162.97 130.313C163.08 130.423 163.19 130.423 163.19 130.533C163.3 130.644 163.3 130.644 163.41 130.754C163.52 130.864 163.63 130.974 163.52 131.084V131.194C163.3 131.965 160.547 133.397 157.354 134.058C157.134 134.058 156.913 134.058 156.693 134.058Z" fill="#AD0E25"/>
<path opacity="0.3" d="M149.316 125.466C149.316 125.466 150.307 125.797 151.848 126.237L162.97 126.568C165.833 127.89 170.127 128.881 174.972 128.661C183.451 128.33 183.671 125.907 193.361 126.458C193.361 126.458 197.436 125.136 200.299 126.017C203.162 126.898 203.382 123.153 203.712 121.28C204.263 118.306 207.897 115.883 213.072 116.323C215.825 116.544 218.578 117.755 220.009 120.289C218.798 116.654 215.605 115.002 212.301 114.671C207.236 114.23 203.492 116.654 202.941 119.628C202.611 121.501 202.171 124.695 199.308 123.814C196.445 122.933 192.701 124.034 192.701 124.034C182.79 123.814 182.79 126.127 174.312 126.458C169.467 126.678 165.723 125.576 162.86 124.255L150.417 124.475C149.866 125.026 149.316 125.466 149.316 125.466Z" fill="#BC354C"/>
<path d="M60.0124 128.22C60.0124 128.22 54.1764 125.797 42.7244 116.654C42.7244 116.654 51.5336 123.483 60.1226 127.669L60.0124 128.22Z" fill="#60843A"/>
<path d="M46.7988 119.738C46.7988 119.738 44.8168 120.399 38.5402 117.095C38.5402 117.095 44.046 118.416 46.7988 119.738Z" fill="#60843A"/>
<path d="M46.7986 119.738C46.7986 119.738 44.3761 117.425 42.9446 112.468C42.9446 112.358 47.2391 118.196 46.7986 119.738Z" fill="#60843A"/>
<path d="M47.8999 120.619C47.8999 120.619 46.9089 119.628 40.8526 121.28C40.8526 121.28 47.3493 121.391 47.8999 120.619Z" fill="#60843A"/>
<path d="M47.8995 120.509C47.8995 120.509 49.0007 119.738 46.7984 114.781C46.7984 114.781 46.9085 119.959 47.8995 120.509Z" fill="#60843A"/>
<path d="M45.2568 118.747C45.2568 118.747 42.504 117.976 38.9803 113.68C38.9803 113.68 45.0366 117.315 45.2568 118.747Z" fill="#60843A"/>
<path d="M48.8906 121.391C48.8906 121.391 47.8996 120.84 41.5129 123.704C41.623 123.594 48.4502 122.602 48.8906 121.391Z" fill="#60843A"/>
<path d="M49.001 121.28C49.001 121.28 49.992 120.84 49.7718 115.112C49.7718 115.002 47.8998 120.179 49.001 121.28Z" fill="#60843A"/>
<path d="M50.2124 122.162C50.2124 122.162 48.4506 121.831 43.7156 125.797C43.7156 125.797 49.8821 123.484 50.2124 122.162Z" fill="#60843A"/>
<path d="M50.2123 122.162C50.2123 122.162 51.6438 121.391 51.9741 116.213C51.9741 116.213 49.4415 120.95 50.2123 122.162Z" fill="#60843A"/>
<path d="M51.3136 123.043C51.3136 123.043 50.1023 122.933 46.7989 127.008C46.7989 127.008 51.7541 124.585 51.3136 123.043Z" fill="#60843A"/>
<path d="M51.4232 122.933C51.4232 122.933 52.5244 122.602 53.4053 118.086C53.4053 118.086 50.3221 121.611 51.4232 122.933Z" fill="#60843A"/>
<path d="M52.8552 123.924C52.8552 123.924 51.2035 123.594 49.2214 128.11C49.2214 128.11 53.0754 125.356 52.8552 123.924Z" fill="#60843A"/>
<path d="M52.8551 123.814C52.8551 123.814 54.3967 123.704 55.1675 119.408C55.1675 119.408 52.3045 122.382 52.8551 123.814Z" fill="#60843A"/>
<path d="M56.709 128.22C56.709 128.22 62.5451 125.797 73.9971 116.654C73.9971 116.654 65.1879 123.483 56.5989 127.669L56.709 128.22Z" fill="#60843A"/>
<path d="M69.923 119.738C69.923 119.738 71.9051 120.399 78.1816 117.095C78.1816 117.095 72.6759 118.416 69.923 119.738Z" fill="#60843A"/>
<path d="M69.9231 119.738C69.9231 119.738 72.3456 117.425 73.7771 112.468C73.7771 112.358 69.4826 118.196 69.9231 119.738Z" fill="#60843A"/>
<path d="M68.8218 120.619C68.8218 120.619 69.8128 119.628 75.8691 121.28C75.8691 121.28 69.3723 121.391 68.8218 120.619Z" fill="#60843A"/>
<path d="M68.8217 120.509C68.8217 120.509 67.7206 119.738 69.9229 114.781C69.9229 114.781 69.8127 119.959 68.8217 120.509Z" fill="#60843A"/>
<path d="M71.4647 118.747C71.4647 118.747 74.2175 117.976 77.7412 113.68C77.7412 113.68 71.6849 117.315 71.4647 118.747Z" fill="#60843A"/>
<path d="M67.7204 121.391C67.7204 121.391 68.7115 120.84 75.0981 123.704C75.0981 123.594 68.271 122.602 67.7204 121.391Z" fill="#60843A"/>
<path d="M67.7204 121.28C67.7204 121.28 66.7294 120.84 66.9496 115.112C66.9496 115.002 68.8216 120.179 67.7204 121.28Z" fill="#60843A"/>
<path d="M66.5096 122.162C66.5096 122.162 68.2714 121.831 73.0063 125.797C73.0063 125.797 66.8399 123.484 66.5096 122.162Z" fill="#60843A"/>
<path d="M66.5093 122.162C66.5093 122.162 65.0778 121.391 64.7475 116.213C64.7475 116.213 67.2801 120.95 66.5093 122.162Z" fill="#60843A"/>
<path d="M65.4081 123.043C65.4081 123.043 66.6194 122.933 69.9229 127.008C69.9229 127.008 64.9677 124.585 65.4081 123.043Z" fill="#60843A"/>
<path d="M65.2982 122.933C65.2982 122.933 64.1971 122.602 63.3162 118.086C63.3162 118.086 66.2893 121.611 65.2982 122.933Z" fill="#60843A"/>
<path d="M63.8667 123.924C63.8667 123.924 65.5184 123.594 67.5005 128.11C67.5005 128.11 63.6465 125.356 63.8667 123.924Z" fill="#60843A"/>
<path d="M63.7566 123.814C63.7566 123.814 62.215 123.704 61.4442 119.408C61.5543 119.408 64.4173 122.382 63.7566 123.814Z" fill="#60843A"/>
<path d="M71.2441 138.244C71.7947 137.693 72.3452 137.143 72.5655 136.261C72.6756 135.711 72.5655 135.27 72.4554 134.719C72.2351 133.618 71.7947 132.516 71.0239 131.855C70.2531 131.084 69.1519 130.864 68.1609 130.754C64.7473 130.313 61.3338 130.203 57.9202 129.542C56.4887 129.212 54.9471 128.881 53.5156 128.881C51.974 128.881 50.4324 129.322 49.3312 130.423C49.111 130.644 48.7807 130.974 48.6705 131.415C48.5604 131.745 48.4503 132.186 48.4503 132.516C48.2301 133.287 47.8997 133.948 47.5694 134.609C47.239 135.27 47.1289 136.151 47.3491 136.812C47.5694 137.473 48.12 137.914 48.6705 138.244C51.8639 140.117 55.6078 139.786 59.2416 139.456C62.3248 139.346 70.5834 138.905 71.2441 138.244Z" fill="#46507C"/>
<path d="M47.4591 136.922C47.6793 137.583 48.2299 138.024 48.7805 138.354C51.9738 140.117 55.7177 139.897 59.3515 139.566C62.2145 139.346 70.5833 138.905 71.2439 138.244C71.7945 137.694 72.3451 137.143 72.5653 136.261C72.6754 135.821 72.5653 135.38 72.5653 134.94C72.4552 135.05 72.235 135.27 72.1248 135.38C71.4642 135.931 63.4258 137.473 60.4527 137.804C56.929 138.134 52.8547 137.253 49.6614 135.49C49.1108 135.16 48.5602 134.719 48.34 134.058C48.2299 133.838 48.2299 133.728 48.2299 133.508C48.0097 133.948 47.8995 134.279 47.6793 134.719C47.349 135.38 47.2389 136.262 47.4591 136.922Z" fill="#323854"/>
<path d="M62.3246 136.261C62.2144 135.49 65.628 133.618 68.1607 133.177C69.7023 132.957 71.2439 133.177 71.354 133.948C71.4641 134.719 69.7023 135.49 68.1607 135.711C66.619 135.931 62.4347 137.033 62.3246 136.261Z" fill="#6F80B5"/>
<path d="M51.0929 135.27C52.194 135.601 53.2952 135.601 53.4053 135.05C53.5154 134.609 51.5333 133.397 50.3221 132.957C49.2209 132.626 47.8995 134.169 51.0929 135.27Z" fill="#6F80B5"/>
<path d="M69.8128 130.313C70.2533 129.873 70.8038 129.432 70.914 128.661C71.0241 128.22 70.914 127.78 70.914 127.449C70.6937 126.568 70.3634 125.576 69.8128 125.026C69.1521 124.365 68.2712 124.255 67.3903 124.144C64.5273 123.704 61.6643 123.704 58.9114 123.153C57.7002 122.933 56.4889 122.602 55.2776 122.602C54.0664 122.602 52.745 122.933 51.8641 123.924C51.6438 124.144 51.4236 124.365 51.3135 124.695C51.2034 125.026 51.2034 125.356 51.0933 125.687C50.9832 126.348 50.6528 126.788 50.4326 127.449C50.2124 128.11 50.1022 128.661 50.3225 129.322C50.5427 129.872 50.9832 130.203 51.4236 130.423C54.0664 131.965 57.1496 131.745 60.1227 131.415C62.325 131.194 69.2622 130.754 69.8128 130.313Z" fill="#46507C"/>
<path d="M50.1025 129.212C50.3227 129.762 50.7632 130.093 51.2036 130.313C53.8464 131.855 56.9296 131.635 59.9027 131.304C62.3252 131.084 69.1524 130.754 69.7029 130.203C70.1434 129.762 70.694 129.322 70.8041 128.551C70.9142 128.22 70.8041 127.78 70.8041 127.449C70.694 127.559 70.5839 127.669 70.4737 127.78C69.9232 128.22 63.2062 129.542 60.8937 129.762C57.9206 129.983 54.6172 129.322 51.9744 127.78C51.534 127.559 51.0935 127.119 50.8733 126.678C50.7632 126.568 50.7632 126.348 50.7632 126.237C50.6531 126.568 50.4328 126.898 50.3227 127.229C49.9924 127.89 49.8823 128.661 50.1025 129.212Z" fill="#323854"/>
<path d="M62.4349 128.661C62.3248 128 65.1878 126.458 67.28 126.017C68.6014 125.797 69.9227 126.017 69.9227 126.678C70.0328 127.339 68.6014 128 67.28 128.22C65.9586 128.44 62.4349 129.322 62.4349 128.661Z" fill="#6F80B5"/>
<path d="M53.0754 127.78C54.0665 128.11 54.8373 128 54.9474 127.669C55.0575 127.229 53.4058 126.237 52.4147 126.017C51.5338 125.576 50.4327 126.898 53.0754 127.78Z" fill="#6F80B5"/>
<path d="M52.9641 123.594C52.6337 123.263 52.1933 122.823 52.0832 122.272C51.9731 121.941 52.0832 121.611 52.0832 121.28C52.1933 120.509 52.5236 119.848 52.9641 119.408C53.5147 118.967 54.1754 118.747 54.836 118.637C57.0383 118.306 59.3508 118.306 61.5531 117.866C62.5441 117.645 63.5351 117.425 64.5262 117.425C65.5172 117.425 66.5082 117.645 67.279 118.416C67.4993 118.637 67.6094 118.747 67.7195 119.077C67.8296 119.298 67.8296 119.628 67.9397 119.848C68.0498 120.289 68.2701 120.73 68.4903 121.28C68.7105 121.721 68.8206 122.272 68.6004 122.712C68.4903 123.153 68.0498 123.373 67.7195 123.594C65.6273 124.805 63.0947 124.585 60.7823 124.475C58.9103 124.255 53.4045 123.924 52.9641 123.594Z" fill="#46507C"/>
<path d="M68.7111 122.712C68.601 123.153 68.1605 123.373 67.8301 123.594C65.738 124.805 63.2053 124.585 60.8929 124.475C59.021 124.365 53.5152 124.034 53.0748 123.594C52.7444 123.263 52.304 122.823 52.1938 122.272C52.1938 121.941 52.1938 121.721 52.1938 121.391C52.304 121.501 52.4141 121.611 52.5242 121.721C52.9646 122.162 58.2502 123.153 60.2322 123.263C62.5446 123.483 65.2975 122.933 67.3897 121.721C67.72 121.501 68.1605 121.28 68.2706 120.84C68.2706 120.73 68.3807 120.619 68.3807 120.509C68.4908 120.73 68.601 121.06 68.7111 121.28C68.7111 121.721 68.8212 122.272 68.7111 122.712Z" fill="#323854"/>
<path d="M58.911 122.272C59.0211 121.721 56.7087 120.509 55.057 120.179C54.066 119.959 52.9648 120.179 52.9648 120.73C52.9648 121.28 54.066 121.721 55.057 121.941C56.048 122.051 58.8009 122.712 58.911 122.272Z" fill="#6F80B5"/>
<path d="M66.2886 121.611C65.5178 121.831 64.8571 121.831 64.747 121.501C64.6368 121.17 66.0683 120.399 66.729 120.179C67.4998 119.848 68.3808 120.84 66.2886 121.611Z" fill="#6F80B5"/>
<path d="M1.54189 113.79V135.931C1.54189 137.363 2.64305 138.575 4.07454 138.575H18.6097C20.0412 138.575 21.1423 137.363 21.1423 135.931V113.79C21.1423 110.706 19.1603 107.952 16.2973 107.291L14.4253 106.85H8.14878L6.27683 107.291C3.52396 107.952 1.54189 110.595 1.54189 113.79Z" fill="#E89C52"/>
<path opacity="0.3" d="M0.000423431 113.129V136.922C0.000423431 138.465 1.32181 139.786 2.86342 139.786H19.711C21.2526 139.786 22.574 138.465 22.574 136.922V113.129C22.574 109.824 20.2616 106.96 17.0682 106.189L14.9761 105.749H7.70847L5.61629 106.189C2.31284 106.85 0.000423431 109.714 0.000423431 113.129Z" fill="white"/>
<path opacity="0.25" d="M0.000419617 113.129V136.922C0.000419617 138.465 1.32181 139.786 2.86342 139.786H19.711C20.9223 139.786 21.9133 139.125 22.3538 138.024H7.26801C5.7264 138.024 4.40502 136.702 4.40502 135.16V111.366C4.40502 109.163 5.39606 107.07 7.04779 105.749L5.50617 106.079C2.31283 106.85 0.000419617 109.714 0.000419617 113.129Z" fill="#B2B2B2"/>
<path d="M7.70872 99.69H14.9763V105.638H7.70872V99.69Z" fill="#AB99C6"/>
<path d="M11.3425 100.461C9.33563 100.461 7.70872 100.116 7.70872 99.69C7.70872 99.2642 9.33563 98.919 11.3425 98.919C13.3494 98.919 14.9763 99.2642 14.9763 99.69C14.9763 100.116 13.3494 100.461 11.3425 100.461Z" fill="#B9A7D1"/>
<path d="M11.3425 106.299C9.33563 106.299 7.70872 106.003 7.70872 105.638C7.70872 105.273 9.33563 104.977 11.3425 104.977C13.3494 104.977 14.9763 105.273 14.9763 105.638C14.9763 106.003 13.3494 106.299 11.3425 106.299Z" fill="#AB99C6"/>
<path d="M11.3422 99.8002C11.7827 99.8002 12.113 99.4697 12.113 99.0291V95.0635C12.113 94.6229 11.7827 94.2924 11.3422 94.2924C10.9018 94.2924 10.5714 94.6229 10.5714 95.0635V99.0291C10.5714 99.4697 10.9018 99.8002 11.3422 99.8002Z" fill="#C67E36"/>
<path d="M17.5085 95.5042H9.13982C8.91959 95.5042 8.80948 95.394 8.69936 95.394C8.25891 95.0636 8.2589 94.5128 8.58924 94.1823L8.91959 93.8519C9.02971 93.7417 9.24994 93.6315 9.47016 93.6315H15.086C14.9759 93.5214 16.7377 93.962 17.5085 95.5042Z" fill="#D89041"/>
<path opacity="0.2" d="M14.4255 108.833L16.0772 109.384C17.9491 110.485 19.1604 112.468 19.1604 114.561V120.289" stroke="white" stroke-width="3.2358" stroke-miterlimit="10" stroke-linecap="round"/>
<path d="M26.9784 139.786H41.9541C53.5161 134.719 52.9656 125.466 52.9656 125.466H16.0771C15.967 125.466 15.4164 134.719 26.9784 139.786Z" fill="#F8D75B"/>
<path d="M26.9783 139.786H29.6211C19.931 134.279 21.4726 125.466 21.4726 125.466H16.077C15.9668 125.466 15.4163 134.719 26.9783 139.786Z" fill="#EFCA52"/>
<path d="M15.9672 125.466C15.9672 127.008 24.2258 128.22 34.4665 128.22C44.7072 128.22 52.9658 127.008 52.9658 125.466C52.9658 123.924 44.7072 122.712 34.4665 122.712C24.2258 122.712 15.9672 123.924 15.9672 125.466Z" fill="#FEF380"/>
<path d="M18.72 125.466C18.72 126.127 22.4639 126.788 27.9697 127.008C28.5203 127.008 29.1809 127.008 29.7315 127.119C31.163 127.119 32.8147 127.229 34.4665 127.229C43.1655 127.229 50.2129 126.458 50.2129 125.466C50.2129 124.475 43.1655 123.704 34.4665 123.704C33.8058 123.704 33.035 123.704 32.3743 123.704C31.8237 123.704 31.2731 123.704 30.7226 123.704C29.8416 123.704 29.0708 123.704 28.3 123.814C27.8596 123.814 27.309 123.814 26.8685 123.924C22.0235 124.255 18.72 124.805 18.72 125.466Z" fill="#F8D75B"/>
<path d="M25.2167 118.416L26.9785 123.924L27.9695 127.008C28.5201 127.008 29.1808 127.008 29.7314 127.119C31.1629 127.119 32.8146 127.229 34.4663 127.229L33.0348 124.916L32.3741 123.814L28.41 117.205L28.2999 117.095C27.8594 117.095 27.5291 117.095 27.1987 117.095H27.0886H26.9785H26.8684H26.7583H26.6482C26.2077 117.205 25.8774 117.425 25.6571 117.645C25.6571 117.645 25.6571 117.645 25.547 117.755C25.547 117.755 25.547 117.755 25.4369 117.866C25.3268 118.196 25.2167 118.416 25.2167 118.416Z" fill="#D89041"/>
<path d="M25.2167 118.416L26.9786 123.924L27.9696 127.008C28.5202 127.008 29.1809 127.008 29.7314 127.119L28.3 123.924L25.9875 118.527L25.6572 117.866C25.6572 117.866 25.6572 117.866 25.5471 117.976C25.5471 117.976 25.5471 117.976 25.437 118.086C25.3269 118.196 25.2167 118.416 25.2167 118.416Z" fill="#C67E36"/>
<path d="M26.7581 117.205C26.7581 117.205 29.4009 124.475 33.0347 124.805L28.4098 116.984C27.7492 116.984 27.1986 117.095 26.7581 117.205Z" fill="#E89C52"/>
<path d="M23.2346 117.205C23.6751 118.416 25.2167 118.857 26.8684 118.306C28.41 117.755 29.2909 116.323 28.8505 115.112C28.41 113.9 26.8684 113.459 25.2167 114.01C23.7852 114.561 22.7941 115.993 23.2346 117.205Z" fill="#D89041"/>
<path d="M24.776 116.103C24.9963 116.874 25.9873 117.205 26.9783 116.764C27.9694 116.323 28.52 115.552 28.1896 114.781C27.9694 114.01 26.9783 113.68 25.9873 114.12C25.1064 114.451 24.5558 115.332 24.776 116.103Z" fill="#E89C52"/>
<path d="M93.5979 138.905C93.2675 138.575 92.8271 138.134 92.717 137.583C92.6069 137.253 92.717 136.922 92.717 136.592C92.8271 135.821 93.1574 135.16 93.5979 134.719C94.1485 134.279 94.8092 134.058 95.4698 133.948C97.6721 133.618 99.9846 133.618 102.187 133.177C103.178 132.957 104.169 132.736 105.16 132.736C106.151 132.736 107.142 132.957 107.913 133.728C108.133 133.948 108.243 134.058 108.353 134.389C108.463 134.609 108.463 134.94 108.574 135.16C108.684 135.6 108.904 136.041 109.124 136.592C109.344 137.033 109.454 137.583 109.234 138.024C109.124 138.465 108.684 138.685 108.353 138.905C106.261 140.117 103.728 139.897 101.416 139.786C99.434 139.566 94.0383 139.346 93.5979 138.905Z" fill="#46507C"/>
<path d="M109.234 138.024C109.124 138.465 108.684 138.685 108.353 138.905C106.261 140.117 103.728 139.897 101.416 139.786C99.5441 139.676 94.0383 139.346 93.5979 138.905C93.2675 138.575 92.8271 138.134 92.717 137.583C92.717 137.253 92.717 137.032 92.717 136.702C92.8271 136.812 92.9372 136.922 93.0473 137.033C93.4877 137.473 98.7733 138.465 100.755 138.575C103.068 138.795 105.821 138.244 107.913 137.033C108.243 136.812 108.684 136.592 108.794 136.151C108.794 136.041 108.904 135.931 108.904 135.821C109.014 136.041 109.124 136.372 109.234 136.592C109.344 137.032 109.454 137.583 109.234 138.024Z" fill="#323854"/>
<path d="M99.4337 137.583C99.5438 137.033 97.2314 135.821 95.5797 135.49C94.5887 135.27 93.4875 135.49 93.4875 136.041C93.3774 136.592 94.5887 137.033 95.5797 137.253C96.6808 137.363 99.4337 138.134 99.4337 137.583Z" fill="#6F80B5"/>
<path d="M106.812 136.922C106.041 137.143 105.38 137.143 105.27 136.812C105.16 136.482 106.591 135.711 107.252 135.49C108.133 135.16 109.014 136.151 106.812 136.922Z" fill="#6F80B5"/>
<path d="M150.637 138.795C150.197 138.465 149.756 137.914 149.646 137.363C149.536 137.033 149.646 136.592 149.646 136.261C149.756 135.49 150.087 134.609 150.637 134.169C151.188 133.618 152.069 133.508 152.729 133.397C155.262 133.067 157.795 132.957 160.327 132.516C161.429 132.296 162.53 132.076 163.631 132.076C164.732 132.076 165.833 132.406 166.714 133.177C166.934 133.397 167.044 133.618 167.155 133.838C167.265 134.058 167.265 134.389 167.375 134.719C167.485 135.27 167.815 135.711 168.035 136.261C168.256 136.812 168.366 137.363 168.146 137.914C167.925 138.354 167.595 138.685 167.155 138.905C164.842 140.227 161.979 140.007 159.336 139.786C157.244 139.566 151.188 139.236 150.637 138.795Z" fill="#46507C"/>
<path d="M168.146 137.804C167.925 138.244 167.595 138.575 167.155 138.795C164.842 140.117 161.979 139.897 159.336 139.676C157.244 139.456 151.078 139.125 150.637 138.685C150.197 138.354 149.756 137.804 149.646 137.253C149.536 136.922 149.646 136.592 149.646 136.261C149.756 136.372 149.867 136.482 149.977 136.592C150.417 137.033 156.363 138.134 158.566 138.354C161.208 138.575 164.181 137.914 166.494 136.592C166.934 136.372 167.265 136.041 167.485 135.601C167.485 135.49 167.595 135.38 167.595 135.16C167.705 135.49 167.815 135.711 168.035 136.041C168.256 136.702 168.366 137.253 168.146 137.804Z" fill="#323854"/>
<path d="M157.244 137.253C157.354 136.702 154.822 135.27 152.95 134.94C151.738 134.719 150.637 134.94 150.527 135.49C150.417 136.041 151.738 136.592 152.839 136.812C154.051 137.143 157.134 137.914 157.244 137.253Z" fill="#6F80B5"/>
<path d="M165.503 136.592C164.622 136.812 163.961 136.812 163.851 136.482C163.741 136.151 165.282 135.27 166.053 134.94C166.934 134.609 167.925 135.711 165.503 136.592Z" fill="#6F80B5"/>
<defs>
<linearGradient id="paint0_linear" x1="169.173" y1="112.43" x2="172.876" y2="110.191" gradientUnits="userSpaceOnUse">
<stop stop-color="#FFD5C7"/>
<stop offset="1" stop-color="#FEC4AD"/>
</linearGradient>
</defs>
</svg>
