<svg width="61" height="76" fill="none" xmlns="http://www.w3.org/2000/svg"><path d="M30.222 68.72c16.692 0 30.223-13.496 30.223-30.145 0-16.65-13.531-30.147-30.223-30.147C13.531 8.428 0 21.925 0 38.574c0 16.65 13.531 30.147 30.222 30.147z" fill="#fff"/><path d="M44.056 61.48c0-2.3-2.212-4.072-3.988-3.979-1.277.063-2.337 1.057-2.648 1.368-.343.342-.499.56-1.184 1.554-.405.59-.997 1.46-1.745 2.517-.436.404-1.963 1.678-4.206 1.74-2.244-.062-3.74-1.336-4.207-1.74-.747-1.057-1.34-1.927-1.744-2.517-.686-.995-.81-1.212-1.184-1.554-.312-.28-1.371-1.306-2.649-1.368-1.807-.093-3.988 1.679-3.988 3.978a4.01 4.01 0 002.929 3.854h-.031s5.296 1.43 6.823 5.874c0 .59.125 1.18.374 1.678.592 1.243 1.776 2.145 3.21 2.269h.03c.125 0 .25.031.374.031.125 0 .25 0 .374-.031h.031a4.005 4.005 0 003.21-2.269 3.79 3.79 0 00.373-1.678c1.558-4.444 6.824-5.874 6.824-5.874h-.031c1.807-.497 3.053-2.02 3.053-3.854z" fill="#68DBD6"/><path d="M43.87 50.136c0-2.27-2.182-4.04-3.958-3.947-1.246.062-2.305 1.056-2.586 1.336-.343.342-.498.56-1.153 1.523-.405.59-.997 1.46-1.744 2.486-.437.404-1.932 1.647-4.144 1.74-2.212-.062-3.708-1.336-4.144-1.74a235.368 235.368 0 01-1.745-2.486c-.654-.964-.81-1.212-1.153-1.523-.311-.28-1.34-1.274-2.586-1.336-1.776-.093-3.957 1.678-3.957 3.947a3.936 3.936 0 002.898 3.791h-.031s5.234 1.399 6.76 5.812c0 .59.125 1.15.375 1.647.592 1.212 1.776 2.113 3.178 2.238h.03c.125 0 .25.03.375.03.124 0 .249 0 .374-.03h.03a4.034 4.034 0 003.179-2.238 3.658 3.658 0 00.374-1.647c1.526-4.413 6.76-5.812 6.76-5.812h-.03a3.936 3.936 0 002.897-3.791z" fill="#68DBD6"/><path d="M43.87 38.792c0-2.269-2.182-4.04-3.958-3.947-1.246.062-2.305 1.057-2.586 1.337-.343.341-.498.559-1.153 1.522-.405.59-.997 1.461-1.744 2.487-.437.404-1.932 1.647-4.144 1.74-2.212-.062-3.708-1.336-4.144-1.74a235.557 235.557 0 01-1.745-2.487c-.654-.963-.81-1.212-1.153-1.523-.311-.28-1.34-1.274-2.586-1.336-1.776-.093-3.957 1.678-3.957 3.947a3.936 3.936 0 002.898 3.792h-.031s5.234 1.398 6.76 5.811c0 .59.125 1.15.375 1.647.592 1.213 1.776 2.114 3.178 2.238h.03c.125 0 .25.031.375.031.124 0 .249 0 .374-.03h.03a4.034 4.034 0 003.179-2.239 3.655 3.655 0 00.374-1.647c1.526-4.413 6.76-5.811 6.76-5.811h-.03a3.936 3.936 0 002.897-3.792z" fill="#68DBD6"/><path d="M44.056 26.982c0-2.3-2.212-4.071-3.988-3.978-1.277.062-2.337 1.057-2.648 1.368-.343.341-.499.56-1.184 1.554-.405.59-.997 1.46-1.745 2.517-.436.404-1.963 1.678-4.206 1.74-2.244-.062-3.74-1.336-4.207-1.74-.747-1.057-1.34-1.927-1.744-2.517-.686-.995-.81-1.212-1.184-1.554-.312-.28-1.371-1.306-2.649-1.368-1.776-.124-3.988 1.647-3.988 3.978a4.01 4.01 0 002.929 3.854h-.031s5.296 1.43 6.823 5.874c0 .59.125 1.18.374 1.678.592 1.243 1.776 2.145 3.21 2.269h.03c.125 0 .25.03.374.03.125 0 .25 0 .374-.03h.031a4.005 4.005 0 003.21-2.269 3.79 3.79 0 00.373-1.678c1.558-4.444 6.824-5.874 6.824-5.874h-.031c1.807-.497 3.053-2.02 3.053-3.854z" fill="#68DBD6"/><path d="M44.056 15.483c0-2.3-2.212-4.071-3.988-3.978-1.277.062-2.337 1.057-2.648 1.368-.343.342-.499.56-1.184 1.554-.405.59-.997 1.46-1.745 2.517-.436.404-1.963 1.678-4.206 1.74-2.244-.062-3.74-1.336-4.207-1.74-.747-1.057-1.34-1.927-1.744-2.517-.686-.995-.81-1.212-1.184-1.554-.312-.28-1.371-1.306-2.649-1.368-1.776-.124-3.988 1.647-3.988 3.978a4.01 4.01 0 002.929 3.854h-.031s5.296 1.43 6.823 5.874c0 .59.125 1.18.374 1.678.592 1.243 1.776 2.145 3.21 2.269h.03c.125 0 .25.03.374.03.125 0 .25 0 .374-.03h.031a4.005 4.005 0 003.21-2.269 3.79 3.79 0 00.373-1.678c1.558-4.444 6.824-5.874 6.824-5.874h-.031c1.807-.497 3.053-2.02 3.053-3.854z" fill="#68DBD6"/><path d="M44.056 3.984c0-2.3-2.212-4.071-3.988-3.978-1.277.062-2.337 1.057-2.648 1.368-.343.341-.499.559-1.184 1.554-.405.59-.997 1.46-1.745 2.517-.436.404-1.963 1.678-4.206 1.74-2.244-.062-3.74-1.336-4.207-1.74-.747-1.057-1.34-1.927-1.744-2.517-.686-.995-.81-1.213-1.184-1.554-.312-.28-1.371-1.306-2.649-1.368-1.776-.124-3.988 1.647-3.988 3.978a4.01 4.01 0 002.929 3.854h-.031s5.296 1.43 6.823 5.874c0 .59.125 1.18.374 1.678.592 1.243 1.776 2.144 3.21 2.269h.03c.125 0 .25.03.374.03.125 0 .25 0 .374-.03h.031a4.005 4.005 0 003.21-2.269 3.79 3.79 0 00.373-1.678c1.558-4.444 6.824-5.874 6.824-5.874h-.031c1.807-.497 3.053-2.02 3.053-3.854z" fill="#68DBD6"/></svg>