<svg width="81" height="100" fill="none" xmlns="http://www.w3.org/2000/svg"><path d="M40.19 91.384c22.196 0 40.189-17.948 40.189-40.088s-17.994-40.088-40.19-40.088C17.994 11.208 0 29.156 0 51.296s17.993 40.088 40.19 40.088z" fill="#68DBD6"/><path d="M58.586 81.755c0-3.058-2.942-5.414-5.304-5.29-1.699.082-3.107 1.405-3.522 1.818-.455.455-.663.744-1.574 2.067-.539.785-1.326 1.942-2.32 3.347-.58.537-2.61 2.232-5.594 2.315-2.983-.083-4.971-1.778-5.593-2.315-.994-1.405-1.782-2.562-2.32-3.347-.912-1.323-1.078-1.612-1.575-2.067-.414-.372-1.823-1.736-3.521-1.818-2.404-.124-5.304 2.231-5.304 5.29a5.332 5.332 0 003.895 5.124h-.042s7.044 1.901 9.074 7.811c0 .786.166 1.57.497 2.232.788 1.653 2.362 2.852 4.268 3.017h.041c.166 0 .332.041.498.041.165 0 .331 0 .497-.04h.041a5.326 5.326 0 004.268-3.018c.331-.661.497-1.446.497-2.232 2.072-5.91 9.074-7.81 9.074-7.81h-.042c2.403-.662 4.06-2.687 4.06-5.125z" fill="#fff"/><path d="M58.337 66.67c0-3.017-2.9-5.373-5.262-5.249-1.657.083-3.066 1.406-3.439 1.778-.456.454-.663.743-1.533 2.025-.539.785-1.326 1.942-2.32 3.306-.58.537-2.569 2.19-5.51 2.314-2.942-.082-4.931-1.777-5.511-2.314a313.322 313.322 0 01-2.32-3.306c-.87-1.282-1.078-1.612-1.533-2.026-.415-.371-1.782-1.694-3.44-1.777-2.361-.124-5.261 2.232-5.261 5.25 0 2.396 1.616 4.421 3.853 5.041h-.041s6.96 1.86 8.99 7.728c0 .786.166 1.53.498 2.19.787 1.613 2.361 2.811 4.226 2.976h.041c.166 0 .332.042.497.042.166 0 .332 0 .498-.042h.04a5.365 5.365 0 004.227-2.975 4.86 4.86 0 00.497-2.19c2.03-5.87 8.991-7.729 8.991-7.729h-.041c2.237-.62 3.853-2.645 3.853-5.042z" fill="#fff"/><path d="M58.337 51.585c0-3.017-2.9-5.372-5.262-5.248-1.657.082-3.066 1.405-3.439 1.777-.456.455-.663.744-1.533 2.025-.539.785-1.326 1.942-2.32 3.306-.58.537-2.569 2.19-5.51 2.315-2.942-.083-4.931-1.778-5.511-2.315a313.133 313.133 0 01-2.32-3.306c-.87-1.281-1.078-1.612-1.533-2.025-.415-.372-1.782-1.695-3.44-1.777-2.361-.124-5.261 2.231-5.261 5.248 0 2.397 1.616 4.422 3.853 5.042h-.041s6.96 1.86 8.99 7.729c0 .785.166 1.529.498 2.19.787 1.612 2.361 2.81 4.226 2.976h.041c.166 0 .332.041.497.041.166 0 .332 0 .498-.041h.04a5.364 5.364 0 004.227-2.976 4.86 4.86 0 00.497-2.19c2.03-5.869 8.991-7.729 8.991-7.729h-.041c2.237-.62 3.853-2.645 3.853-5.042z" fill="#fff"/><path d="M58.586 35.88c0-3.058-2.942-5.413-5.304-5.29-1.699.084-3.107 1.406-3.522 1.82-.455.454-.663.743-1.574 2.066-.539.785-1.326 1.942-2.32 3.347-.58.538-2.61 2.232-5.594 2.315-2.983-.083-4.971-1.777-5.593-2.315-.994-1.405-1.782-2.562-2.32-3.347-.912-1.323-1.078-1.612-1.575-2.067-.414-.372-1.823-1.735-3.521-1.818-2.362-.166-5.304 2.19-5.304 5.29a5.332 5.332 0 003.895 5.124h-.042s7.044 1.901 9.074 7.811c0 .786.166 1.57.497 2.232.788 1.653 2.362 2.852 4.268 3.017h.041c.166 0 .332.041.498.041.165 0 .331 0 .497-.04h.041a5.326 5.326 0 004.268-3.018c.331-.661.497-1.446.497-2.232 2.072-5.91 9.074-7.81 9.074-7.81h-.042c2.403-.662 4.06-2.687 4.06-5.125z" fill="#fff"/><path d="M58.586 20.59c0-3.059-2.942-5.414-5.304-5.29-1.699.082-3.107 1.405-3.522 1.818-.455.455-.663.744-1.574 2.066-.539.786-1.326 1.943-2.32 3.348-.58.537-2.61 2.232-5.594 2.314-2.983-.082-4.971-1.777-5.593-2.314-.994-1.405-1.782-2.562-2.32-3.348-.912-1.322-1.078-1.611-1.575-2.066-.414-.372-1.823-1.736-3.521-1.818-2.362-.166-5.304 2.19-5.304 5.29a5.332 5.332 0 003.895 5.124h-.042s7.044 1.901 9.074 7.811c0 .785.166 1.57.497 2.232.788 1.653 2.362 2.852 4.268 3.017h.041c.166 0 .332.041.498.041.165 0 .331 0 .497-.041h.041a5.326 5.326 0 004.268-3.017c.331-.661.497-1.447.497-2.232 2.072-5.91 9.074-7.81 9.074-7.81h-.042c2.403-.662 4.06-2.687 4.06-5.125z" fill="#fff"/><path d="M58.586 5.298c0-3.058-2.942-5.414-5.304-5.29-1.699.083-3.107 1.405-3.522 1.819-.455.454-.663.744-1.574 2.066-.539.785-1.326 1.942-2.32 3.348-.58.537-2.61 2.231-5.594 2.314-2.983-.083-4.971-1.777-5.593-2.314-.994-1.406-1.782-2.563-2.32-3.348-.912-1.322-1.078-1.612-1.575-2.066C30.37 1.455 28.961.09 27.263.008c-2.362-.165-5.304 2.19-5.304 5.29a5.332 5.332 0 003.895 5.125h-.042s7.044 1.9 9.074 7.81c0 .786.166 1.571.497 2.232.788 1.654 2.362 2.852 4.268 3.017h.041c.166 0 .332.042.498.042.165 0 .331 0 .497-.042h.041a5.326 5.326 0 004.268-3.017c.331-.66.497-1.446.497-2.231 2.072-5.91 9.074-7.811 9.074-7.811h-.042c2.403-.661 4.06-2.686 4.06-5.125z" fill="#fff"/></svg>