<svg width="239" height="140" fill="none" xmlns="http://www.w3.org/2000/svg"><path d="M73.667 115.883c29.621 8.702 46.798 1.542 50.763-12.227 4.074-13.77-6.607-29.081-36.118-37.784-36.999-10.905-71.024 6.28-71.024 6.28s21.142 33.376 56.379 43.731z" fill="#F27484"/><path d="M112.097 59.594c-7.268 29.962.66 46.816 14.645 50.23 13.985 3.415 28.74-7.931 36.008-37.893 9.139-37.563-9.69-70.61-9.69-70.61s-32.374 22.583-40.963 58.273z" fill="#F27484"/><path d="M141.497 57.61c9.801 29.302 3.304 46.707-10.35 51.223-13.655 4.516-29.291-5.508-39.091-34.699-12.223-36.571 3.633-71.16 3.633-71.16s34.136 19.718 45.808 54.637z" fill="#F27484"/><path d="M157.794 64.44c-28.74 11.236-37.989 27.429-32.704 40.758 5.286 13.439 23.014 18.946 51.644 7.711 35.898-14.1 52.305-48.469 52.305-48.469s-36.999-13.438-71.245 0z" fill="#F27484"/><path d="M128.614 51.552c-17.398 25.446-15.967 43.952-4.074 52.104 11.892 8.151 29.731 2.754 47.129-22.692 21.692-31.945 15.856-69.508 15.856-69.508s-38.21 9.694-58.911 40.096z" fill="#FC8DA5"/><path d="M76.2 83.608c18.83 24.454 36.888 28.75 48.34 19.937 11.342-8.812 11.782-27.428-7.047-51.772C93.928 21.26 56.379 15.09 56.379 15.09s-2.643 39.436 19.82 68.517z" fill="#FC8DA5"/><path d="M97.12 67.084c.882 30.844 12.994 44.943 27.309 44.613 14.425-.441 25.767-15.312 24.776-46.155C148.104 26.988 121.236 0 121.236 0S96.13 30.293 97.121 67.084z" fill="#F9BCC1"/><path opacity=".5" d="M89.413 70.389c.33 12.447 2.092 22.802 4.955 31.064 6.387 4.296 12.333 6.278 17.729 6.278-8.369-6.058-14.315-19.387-14.976-40.757-.33-11.126 1.762-21.59 4.845-30.843-2.202-1.763-4.404-3.305-6.606-4.737-3.855 11.787-6.387 25.115-5.947 38.995zm47.129 36.681c5.286-.11 11.122-2.313 17.178-6.829 2.422-8.592 3.634-19.167 3.303-31.725-.44-14.1-3.413-26.988-7.598-38.334a87.795 87.795 0 00-6.386 5.178c3.413 8.812 5.836 19.056 6.166 30.292.551 21.26-4.625 34.919-12.663 41.418z" fill="#F27484"/><path opacity=".3" d="M128.504 110.926c3.083 3.635 7.488 6.168 13.324 7.38 12.553-1.322 27.198-11.236 41.513-32.385 6.167-8.923 10.571-18.286 13.544-27.319-4.514-.22-9.359-.22-14.314.22-2.533 7.27-6.057 14.871-10.902 22.032-14.315 20.819-28.74 28.199-40.082 25.776-.881 1.542-1.872 2.974-3.083 4.296zM50.653 63.008c3.524 8.923 8.369 17.956 14.755 26.327 14.315 18.617 28.41 27.87 40.302 29.522 6.938-1.322 12.003-4.296 15.306-8.372-.991-1.101-1.982-2.313-2.753-3.635-11.231 3.415-26.317-3.084-41.953-23.242-5.286-6.83-9.14-14.1-12.003-21.37-4.735 0-9.36.22-13.654.77z" fill="#BC354C"/><path d="M57.37 99.69s-4.075.551-6.828 0c-2.752-.55-3.303-.881-4.404-.44 0 0-3.744-3.636-4.845-3.195-1.101.44-8.479-2.424-12.003-1.983-3.413.44-14.315 1.322-12.773 10.795 1.542 9.474 5.836 21.26 11.562 25.005 5.836 3.636 18.169 0 18.169 0s19.82 1.983 25.877.882L57.37 99.69z" fill="#fff"/><path opacity=".2" d="M16.958 106.85c1.762 9.143 5.836 19.608 11.231 23.022 5.837 3.636 18.17 0 18.17 0s19.82 1.983 25.876.882l-2.422-5.067c-7.378 3.414-24.005 0-24.005 0s-12.994 2.643-18.83-1.102c-4.515-2.754-7.928-10.244-10.02-17.735z" fill="#B5B4B4"/><path d="M64.417 103.105s-3.524-4.186-6.497-3.966c-3.083.33 2.973 22.912 14.315 31.394 0 0 1.432.441 2.643.441 0 0-6.497-22.141-6.607-22.361 0-.221-3.854-5.508-3.854-5.508zm-23.124-7.16s-2.092 12.007 7.157 20.378c0 0-4.845-9.693-2.312-17.184 0 0-3.854-3.635-4.845-3.194zm-11.783 6.94s-2.972 4.296-1.21 9.583c1.871 5.287 5.505 8.041 5.505 8.041s-9.36-4.957-11.562-10.905c-1.982-5.398-.77-10.465-.77-10.465s1.32 7.16 3.413 10.465c.22 0 .55-4.957 4.625-6.719zm34.136 26.547s-12.443-1.102-17.398.33c0 0 6.717.661 10.46.882 0 0 1.983-.772 6.938-1.212z" fill="#E5E5E5"/><path d="M159.116 101.122s-21.583-8.262-31.493-8.262c-14.205 0-45.918 12.007-63.316 10.245 0 0-.44 10.795 6.607 19.277 0 0-1.432 2.093-.881 3.855.77 2.314 4.404 5.949 12.112 6.61 6.057.55 42.615.991 46.579 0 0 0 9.47 4.516 15.746.11 0 0 6.057.991 8.92 1.322 2.863.33 10.24-1.653 10.24-3.305 0-1.652-14.204-5.618-14.204-5.618s2.312-1.873 3.083-3.194l3.634-3.525 2.973-17.515z" fill="#FEC4AD"/><path d="M128.503 131.304s-41.513-7.049-46.028-7.6c-4.404-.441-12.993-.551-12.222 3.194.77 3.856 15.526 5.618 21.252 5.618 35.126.11 36.998-1.212 36.998-1.212z" fill="#F4BBA6"/><path d="M70.362 127.008c1.212 2.314 4.846 5.398 11.893 5.949 6.056.551 42.614.991 46.578 0 0 0 9.47 4.516 15.747.11 0 0 6.056.991 8.919 1.322h.551c-6.607-.661-10.021-3.195-10.021-3.195-6.166 4.517-15.416.11-15.416.11-3.964.992-42.284-.22-48.34-.771-4.845-.33-8.039-1.872-9.91-3.525zm87.872-22.031s-1.541 1.653-2.863 7.05c0 0-.66-4.736.441-10.685 0 0-2.313 4.076-2.092 8.042.33 4.846 2.092 6.168-.221 11.786 0 0 1.983-1.983 2.643-2.533.661-.551 2.092-13.66 2.092-13.66z" fill="#EFB39E"/><path d="M109.013 122.382c5.836 1.101 11.342 2.313 15.086 2.974 5.836 1.102 9.69 1.542 13.985 0 2.092-.771 4.514-.881 6.496-.771 7.488.22 7.048-11.346 6.827-13.99-.22-.44-.44-.881-.66-1.432-5.176 7.381-18.279 14.541-41.734 13.219z" fill="#F4BBA6"/><path d="M152.509 122.162s2.422-6.279-1.101-11.897c0 0 .11 12.998-11.232 14.65 0 0 3.524-.771 9.25.551-.111 0 1.872-1.211 3.083-3.304z" fill="#EFB39E"/><path d="M79.612 121.17c8.81-3.965 33.806 2.203 44.487 4.186 5.836 1.102 9.69 1.542 13.984 0 4.956-1.762 11.232 0 11.232 0l6.937 2.093s-8.699-1.983-11.892-2.093c-5.065-.11-6.497 2.203-12.663 2.093-10.571-.22-24.996-5.177-37.219-6.389-10.901-.991-14.866.11-14.866.11zm72.566-8.261s0-.551-.33-1.653c-.22-.44-.33-1.101-.661-1.762-.22-.661-.661-1.432-1.101-2.203-.551-.771-.991-1.542-1.762-2.313-.33-.331-.66-.772-1.101-1.212-.44-.331-.881-.771-1.321-1.102-.441-.44-.991-.661-1.432-.991-.55-.331-.991-.661-1.541-.881-1.102-.441-2.203-1.102-3.304-1.432l-1.762-.551c-.55-.22-1.211-.22-1.762-.33-.55-.11-1.211-.22-1.761-.331-.551-.11-1.102-.11-1.762-.11-1.101 0-2.203-.22-3.194-.11-.991 0-1.982.11-2.863.22-.88 0-1.651.22-2.422.33-.661.11-1.321.22-1.872.33-.991.221-1.542.331-1.542.331h3.524c.661 0 1.542-.11 2.423 0 .88 0 1.761.11 2.863.11.55 0 .991.11 1.541.11.551.11.991.11 1.542.22.55.111 1.101.111 1.651.221l1.652.331 1.652.33 1.652.551c1.101.33 2.092.881 3.083 1.212.55.22.991.55 1.431.771.441.33.991.55 1.322.881.44.33.881.661 1.211.881.44.331.771.661 1.101.992l.991.991c.331.33.661.661.881.991.551.661.991 1.322 1.321 1.873.441.551.661 1.102.881 1.542.221.441.441.771.551 1.102.22.55.22.661.22.661z" fill="#FFE0BB"/><path d="M64.637 107.731s1.211 8.703 6.277 14.651c.33-.22 5.175-3.966 8.919-4.957 10.13-2.754 18.059-1.212 27.749-2.754 14.315-2.313 22.243-8.262 22.684-8.482-1.102.22-49.882 9.914-65.629 1.542z" fill="#F4BBA6"/><path d="M68.05 118.086a23.27 23.27 0 002.863 4.406c.33-.22 5.176-3.965 8.92-4.957 10.13-2.754 18.059-1.212 27.749-2.754 13.874-2.203 21.802-7.931 22.573-8.482-.771.441-8.919 5.508-22.573 7.711-9.69 1.542-17.398.771-27.75 2.203-3.413.441-10.24 1.432-11.782 1.873z" fill="#EFB39E"/><path d="M70.913 122.382c4.846-6.499 10.902-8.041 25.657-8.482 18.059-.441 33.585-7.821 33.585-7.821s-7.928 6.169-22.683 8.592c-9.69 1.542-17.619.11-27.75 2.754-3.633 1.102-8.808 4.957-8.808 4.957z" fill="#FFE0BB"/><path d="M87.651 101.122c-.44-.11-.99-.22-1.431-.551-.11-.11-.22-.11-.33-.22-.331-.331-.661-.661-.772-1.102-.22-.66 0-1.322.33-1.872.331-.551.772-.881 1.322-1.212 1.982-1.212 4.185-1.762 6.497-2.093.33 0 .66-.11.991-.11.55 0 1.762.22 2.092.44.33.11.55.331.771.662.22.33.33.77.44 1.211.22 1.212-.55 2.313-1.541 3.305-.33.33-.77.551-1.101.661-.44.22-.991.33-1.432.44-1.211.221-2.532.441-3.744.661a4.703 4.703 0 01-1.761 0l-.33-.22z" fill="#4B5887"/><path d="M97.562 96.165c.22 1.212-.55 2.313-1.542 3.305-.33.33-.77.55-1.101.661-.44.22-.991.33-1.431.44-1.212.221-2.533.441-3.744.661-.551.11-1.212.11-1.762 0h-.22c-.44-.11-.992-.22-1.432-.551-.11-.11-.22-.11-.33-.22-.33-.33-.661-.66-.771-1.102v-.11c.22.33.88.441 1.321.551 2.973.22 6.497-.55 8.7-2.093 1.651-1.211 1.21-2.313.66-3.304.22.11.44.11.55.22.331.11.551.33.771.66.11 0 .22.441.33.882z" fill="#323854"/><path d="M91.836 98.038c0 .44-2.423 1.211-4.074 1.211-1.102 0-2.093-.33-2.093-.77 0-.441 1.212-.772 2.313-.772.99 0 3.854-.11 3.854.33zm3.194-.992c-.551.551-1.212.771-1.432.551-.22-.22.66-1.432 1.211-1.983.66-.44 1.872 0 .22 1.432z" fill="#7487B7"/><path d="M123.439 93.852c.55-.33.991-.881 1.211-1.432.22-.551 0-1.212-.11-1.763-.22-.77-.441-1.652-1.211-2.093-.331-.22-.661-.33-.992-.33-2.202-.55-4.514 0-6.717.55-.44.11-.991.221-1.431.441-.44.22-.771.44-1.211.661-.441.22-.881.551-1.322.771-.33.22-.66.33-.991.551-.33.22-.66.55-.991.992-.33.44-.55.99-.55 1.542.11.88.991 1.652 1.982 1.872.991.33 2.092.33 3.193.22 2.202-.11 4.295-.44 6.387-.88 0-.22 2.202-.661 2.753-1.102z" fill="#46507C"/><path d="M109.123 93.521c.11.882.991 1.653 1.982 1.873.991.33 2.092.33 3.194.22 2.202-.11 4.294-.44 6.386-.88 0 0 2.092-.441 2.643-.882.551-.33.991-.881 1.211-1.432 0-.11.11-.33.11-.44-.22.22-.33.33-.55.44-.551.33-2.643.881-2.643.881-2.092.55-4.294.771-6.387.881-1.101 0-2.202 0-3.193-.22-.991-.33-1.872-.991-1.982-1.873v-.22l-.22.22c-.331.33-.551.882-.551 1.432z" fill="#323854"/><path d="M118.153 92.86c.22.441 2.753.33 4.404-.33.991-.33 1.872-.991 1.652-1.542-.22-.44-1.431-.33-2.422.11-.991.44-3.854 1.322-3.634 1.762zm-6.938.22c.661.441 1.652.331 1.872.11.221-.22-.991-1.321-1.651-1.762-.771-.55-1.762.551-.221 1.653z" fill="#6F80B5"/><path d="M148.985 97.377c.44-.22.881-.44 1.211-.881.11-.22.221-.551.221-.882 0-.66 0-1.432-.441-1.983-.44-.55-1.101-.88-1.762-1.101-2.202-.881-4.404-1.542-6.497-2.534-.88-.44-1.872-.88-2.752-1.211-.991-.22-2.093-.33-2.974.11-.22.11-.44.22-.55.44l-.33.661c-.221.441-.551.661-.881 1.102-.331.33-.551.771-.441 1.322.11.44.33.77.661 1.101 1.762 1.653 4.294 2.204 6.717 2.644 1.762.22 7.267 1.432 7.818 1.212z" fill="#46507C"/><path d="M133.569 92.31c0 .44.33.77.661 1.101 1.761 1.653 4.294 2.203 6.717 2.644 1.982.33 7.487 1.652 8.038 1.322.44-.22.881-.44 1.211-.881.11-.22.221-.551.221-.771-.111.11-.221.11-.331.22-.55.22-6.056-.33-8.038-.661-2.423-.44-4.955-1.652-6.717-3.305-.331-.33-.661-.66-.661-1.101v-.33c-.22.22-.33.44-.551.55-.33.33-.66.771-.55 1.212z" fill="#323854"/><path d="M143.479 94.623c.11-.44 2.533-.992 4.295-.771 1.101.11 2.092.55 1.982.991-.11.44-1.322.661-2.423.44-.991-.11-3.964-.22-3.854-.66zm-7.268-2.643c.661.44 1.322.55 1.542.33.11-.22-.991-1.322-1.652-1.763-.66-.44-1.761.22.11 1.432z" fill="#6F80B5"/><path d="M172.22 85.92s-9.47 5.95-13.655 16.634c-3.854 9.804-3.193 15.422-2.092 16.964.771.991 6.387 7.601 17.729 7.05 8.479-.331 8.368-2.644 18.389-2.424 0 0 6.056-4.626 6.937-10.464 1.982-11.126-.881-30.513-27.308-27.76z" fill="#FEC4AD"/><path d="M172.991 124.144c6.937-.33 8.148-1.872 13.764-2.313.991-.11 2.092-.33 2.973-.661 1.872-.661 3.083-2.423 2.973-4.516-.11-.881-.22-1.873-.55-2.754-1.982-5.618-4.845-12.447-2.093-19.497 0 0-.991-1.983-3.083-2.975a953.576 953.576 0 00-5.395-2.643c6.386.77 10.35 5.177 10.35 5.177-2.752 7.05.221 13.219 2.313 18.837.661 1.762.771 3.635.55 5.287-.66 4.626-1.982 5.948-1.982 5.948-10.02-.22-9.91 2.093-18.389 2.424-11.452.44-17.068-6.059-17.728-7.05-.221-.331-.441-.771-.551-1.542 1.762 2.093 7.268 6.609 16.848 6.278z" fill="#EFB39E"/><path d="M155.813 116.875c.22-2.754 1.101-6.389 2.863-11.015 4.074-10.685 13.544-16.634 13.544-16.634 21.362-2.203 27.308 10.135 27.859 20.709.55-11.125-4.185-26.437-27.859-24.013 0 0-9.47 5.948-13.654 16.633-2.643 6.83-3.084 11.566-2.753 14.32z" fill="#FFE0BB"/><path d="M170.237 115.222c.22 0 .441-.331 0-1.102-.44-.771-1.541-2.423-1.652-3.635 0-1.211-.44-1.211-.55-1.101-.11.11-.881.771 0 3.084.881 2.093 1.872 2.754 2.202 2.754z" fill="#EFB39E"/><path d="M168.806 113.129s.771.33 1.101.881c.331.551.11.661-.11.661s-.771-.661-.991-1.542zm-.661-1.322s.33-.771.22-1.432c-.11-.661-.44-.551-.55-.441 0 .221 0 .992.33 1.873z" fill="#5B412C"/><path d="M172.88 111.697l-2.202 1.873c-.221.22-.441.22-.661 0-.33-.221-.661-.661-.881-1.322-.22-.661-.22-1.102-.22-1.432 0-.221.22-.441.44-.441l2.533-.33s1.872-.111.991 1.652z" fill="url(#paint0_linear)"/><path d="M166.934 119.408s.22-2.644-.33-3.525c-.551-.881-1.322-1.652-1.322-2.203 0-.661.11-1.763-.77-2.644-.881-.881-1.432-2.203-1.432-2.203s-.33.551-.881.881c-.55.22-3.634 1.653-2.312 5.288 1.541 4.296 3.744 4.626 5.285 4.516 1.542-.331 1.762-.11 1.762-.11z" fill="#FF5A5A"/><path d="M168.035 120.619s-.661-.881-1.431-1.762c-.771-.881-1.212-1.652-1.322-1.983-.11-.551-.771-.661-1.101-1.101-.22-.331-.881-1.432-.771-1.983.11-.551.11-.771-.11-1.322-.55-.991-.66-2.313.22-4.627 0 0-.55.882-.77 1.983-.221 1.102-.11 1.432.11 2.203.22.771.33.771.33 1.653 0 .881.771 2.093 1.542 3.084.33.33.881 1.322 1.541 2.093a23.34 23.34 0 001.762 1.762z" fill="#CC3636"/><path d="M167.925 120.509s-.55.771-.991.551c-.44-.22.441-.771.331-1.101-.111-.441.66.55.66.55zm-4.625-12.778s.11-.33-.11-.33c-.22-.11-.881-.11-.991 0-.11.22.551.441.661.661l.11.22c.22-.11.33-.33.33-.551z" fill="#FF5A5A"/><path d="M164.621 118.306c.221-.11.111-.661-.88-1.983-1.432-1.762-1.212-4.075-1.432-4.406-.22-.44-.551-.55-.881-.33-.33.22-.881 1.762 0 3.855.661 1.542 2.313 3.415 3.193 2.864z" fill="#FF8080"/><path d="M162.309 113.68c.11 0 .11-.221 0-.661-.11-.661-.11-.992-.11-1.212 0-.11-.11-.22-.22-.11-.11 0-.331.441-.221.991 0 .441.221 1.102.551.992z" fill="#FFC2C2"/><path d="M183.451 112.027s1.872.551 2.973 2.754c1.101 2.093 2.092 3.415 2.643 4.076.551.661.22 1.102-.881 1.102-.991 0-1.982-.221-3.083-1.212 0 0 .991-.22.991-.881 0-.992-1.101-2.314-1.321-3.966 0-.551-.661-1.542-1.322-1.873z" fill="#EFB39E"/><path d="M180.258 110.375s-.441 3.415 1.542 5.838c1.982 2.424 3.193 2.644 3.633 2.864.551.331.661.992.661.992s-.44-.771-.991-.992c-.441-.11-7.158-1.872-4.845-8.702z" fill="#5B412C"/><path d="M184.662 118.967s.441.771.441 1.102c0 0-.991-1.322-1.211-1.322-.221 0 .44.661.22 1.432 0 0-.551-1.542-1.212-1.763 0 0 .331.772.221 1.432 0 0-.331-1.542-.771-1.872-.33-.221-.441-.221-.33.22l.33 1.322s-.661-.991-.771-1.542c0-.551-.11-.661-.22-.441-.11.11-.22 1.212-.11 1.763 0 0-.331-1.432-.22-2.093.22-.661-.221-.331-.331 0-.11.33-.33 1.101-.33 1.762 0 0-.11-1.212.11-2.313.11-.991-.881 1.101-.881 1.432 0 0 .22-1.212.771-1.983.44-.881-1.322.992-1.322.992s.551-1.102.992-1.432c.44-.441-.992.11-1.432.66 0 0 .551-.991 1.101-1.211.441-.221-.881 0-.881 0s.551-.441.881-.551c.33-.11 0-.551-.771-.33 0 0 .441-.331.661-.441.33-.11-.991-.22-.991-.22s.33-.221.991-.221c.551 0-.22-.44-.661-.44 0 0 .221-.221.661-.221.44 0-.11-.33-.44-.33 0 0 .44-.22.55-.22l.771 3.414 1.982 2.203 2.202 1.212zm5.176 1.212c-.11-2.644-.661-5.728-2.423-7.821-.44-.551-1.101-1.212-1.652-1.542-.22-.11-.44-.331-.66-.441 0 0-.22-.11 0 0h-.331c-.88-.11-.44-1.432.331-1.212.881.111 1.872.992 2.422 1.653 1.322 1.322 2.092 3.194 2.423 5.067.33 1.542.33 3.084.11 4.626.11-.22-.22-.22-.22-.33z" fill="#5B412C"/><path d="M174.862 99.14s-2.202-3.526-3.083-3.305c-.881.22-1.102 4.075-1.102 4.075s-.33-2.423-.22-3.525c.11-1.101.331-3.525 1.542-3.525.661 0 1.431.661 1.762 1.653.77 1.983 1.101 4.626 1.101 4.626z" fill="#EFB39E"/><path d="M175.633 104.317s-3.194-1.322-4.295-4.296c-1.101-2.975-.66-4.076-.77-4.627 0-.66-.551-1.102-.551-1.102s.44.772.33 1.322c0 .551-1.762 7.271 5.286 8.703z" fill="#5B412C"/><path d="M170.347 96.165s-.44-.771-.771-.991c0 0 .661 1.432.551 1.652-.11.22-.33-.771-1.101-.881 0 0 .991 1.212.991 1.873 0 0-.441-.662-1.101-.882 0 0 1.211 1.102 1.211 1.542 0 .441-.11.551-.33.22-.331-.33-.661-.55-.991-.99 0 0 .55 1.1.991 1.431.44.33.44.33.33.33-.11 0-1.101-.44-1.542-.77 0 0 1.101.991 1.762 1.211.661.221.22.331-.11.331-.33-.11-1.211-.22-1.762-.661 0 0 1.101.661 1.982 1.101.881.441-1.431.111-1.651 0 0 0 1.101.331 2.092.441.991 0-1.432.661-1.432.661s1.212 0 1.762-.11c.551-.22-.55.881-1.211.881 0 0 1.101 0 1.541-.33.441-.331-.44.771-.44.771s.661-.221.881-.441c.22-.22.44.22-.11.771 0 0 .55-.22.771-.44.22-.221-.331.991-.331.991s.331-.22.661-.661c.33-.441.33.441 0 .771 0 0 .33-.11.44-.44.221-.331.221.33.11.55l.441-.44-2.533-2.314-.881-2.754-.22-2.423zm2.533-4.957c2.202 1.102 4.185 2.644 5.506 4.737.771 1.322 1.431 2.754 1.431 4.296 0 .44-.11.991-.22 1.432-.33.771-1.431.11-1.101-.661-.11.22 0 0 0-.11v-.11c0-.221 0 .11 0 0v-.771c0-.772-.22-1.433-.44-2.204-.881-2.643-3.084-4.736-5.286-6.278-.11-.22 0-.441.11-.33z" fill="#5B412C"/><path d="M191.93 94.073s-3.964-4.407-10.351-5.178c-6.386-.77-9.69-1.762-9.249-3.525.33-1.872 6.496-7.16 14.865-7.49 8.369-.33 21.473 2.313 26.428 10.905 4.955 8.592-1.211 12.338 7.488 23.683 0 0 15.085 5.618 17.398 10.465 2.422 4.847-3.854 12.448-24.666 9.473l-21.252-8.371s3.524-5.618 1.431-11.126c-1.872-5.508-4.845-11.676-2.092-18.836z" fill="#5E3121"/><path d="M221.111 112.468s3.634 4.737 10.681 10.024c0 0-4.625-5.067-5.946-8.041.11 0-3.524-1.542-4.735-1.983zm-13.985 2.864s-.771-6.499-2.753-12.227c0 0 .551 10.905-.661 14.761l3.414-2.534z" fill="#51281C"/><path d="M208.337 84.158s-3.303 6.94-14.204 9.474c0 0-2.093.33-2.643 1.432 0 0-.551-.882-.331-1.653.331-.66 9.47-1.322 17.178-9.253z" fill="#774131"/><path d="M209.989 88.234s1.542 2.093 1.982 5.948c0 0-.881-1.872-1.652-2.754 0 0 1.102 3.195.881 5.728 0 0-.55-2.974-2.092-5.067 0 0 1.542 5.508.22 10.355 0 0 .11-4.296-1.761-6.059 0 0 .55 4.407.55 6.83 0 0-1.101-5.508-3.413-7.6 0 0 .66 4.406 1.101 6.058 0 0-2.973-7.38-2.863-8.702.11-1.322.991-.772 1.101-.661.11.11.55.991.55.991v-1.873s1.432 1.322 1.982 3.966c0 0 .331-2.093-.55-4.737 0 0 1.542 1.543 1.982 3.856 0 0 .44-3.746-.551-5.398 0 0 1.322.22 2.203.661 0 0-1.101-1.542-2.092-1.983 0 0 .88-.22 1.431-.22 0 0-.44-.881-.881-.991 0 0 .991-.22 1.762-.22 0 0-.551-1.212-1.101-1.433 0 0 1.321.33 2.532 1.322 1.212 1.102 1.982 2.644 1.982 2.644s-1.541-1.212-2.092-1.212c0 0 1.212.992 1.762 2.754-.22-.11-1.652-1.652-2.973-2.203zm-9.03 4.956s.991 1.653 1.212 4.077c.22 2.423-.331 5.397-.331 5.397s0-4.076-.44-5.177c0 0 .22 5.618-2.202 9.583 0 0 .11-3.304-.551-5.507 0 0-.11 6.389-1.321 10.024 0 0 .55-5.398-1.652-8.372 0 0-.441 1.873.33 9.253 0 0-1.982-6.169-2.643-8.151-.66-1.983-.55-5.949-.22-8.262 0 0 .331 3.855 1.542 6.279 0 0-.22-2.644.55-4.957 0 0 0 2.423 1.102 4.626l.22-6.058s.771 4.957.771 7.821c0 0 .66-4.957.44-8.372 0 0 1.211 2.754 1.432 5.177 0 0 .77-3.415.77-4.736 0 0 .551.88.551 2.313.11 0 .661-1.873.44-4.957zm-10.02-.33s-1.101-3.414-4.404-4.626c0 0 2.973.11 5.065 2.754 0 0 .11-2.093-.33-2.864 0 0 .55.22 1.431 1.101 0 0-.55-2.203-1.541-3.194 0 0 .88.22 1.982.77 0 0-1.101-1.651-3.194-2.202 0 0 2.973-.22 5.176 3.304 0 0 .22-3.414-3.084-5.948 0 0 4.295 2.644 5.396 4.627l-1.321-5.178s2.863 3.305 3.744 3.195l-.771-2.093 1.431 1.542s.331-1.432 0-2.203c0 0 1.212.991 1.762 2.313 0 0-.11-2.423-.44-3.415 0 0 .881 1.102 1.101 2.644 0 0 .661-1.542.661-2.423 0 0 1.101 1.322 1.211 2.313l.991-1.542s.22 2.313-.551 3.635c0 0-.33-.881-.55-1.212 0 0-.661 1.873-1.101 2.424 0 0-1.212-.992-1.432-1.432 0 0 .33 1.432.771 2.313 0 0-1.432-1.322-1.762-2.093 0 0 .551 1.432.551 3.525 0 0-.661-.55-1.102-.992 0 0 0 .772-.33 1.763 0 0-.33-1.102-.991-1.873 0 0 .33 1.212.11 2.203 0 0 0-.44-.66-.88 0 0-.661.22-.771 1.762 0 0-1.652-.771-1.982-.882 0 0-.331.441-.771.992 0 0-.991-2.203-1.762-2.754 0 0 .991 1.983.991 3.525 0 0-.881-.11-.991-.11-.11 0-.661.55-.881.66-.22.11-.771 0-.991.11-.33.111-.661.442-.661.442z" fill="#51281C"/><path d="M175.413 81.184c-1.872 1.212-2.863 3.856-2.863 3.856s3.083.66 5.396-.11c2.202-.772 3.523-2.424 2.642-3.746-.991-1.322-3.303-1.212-5.175 0z" fill="#FEFFFF"/><path d="M173.871 82.616a9.202 9.202 0 00-1.321 2.313s1.431.33 3.083.22c.22-.22.441-.66.661-.88.11-.11 0-.22-.11-.22h-.771c-.11 0-.22-.111-.11-.221l.44-.44c.11-.111 0-.221-.11-.221l-.661.11c-.11 0-.22-.11-.11-.22l.331-.33c.11-.11 0-.221-.111-.221l-1.211.11z" fill="#FEF380"/><path d="M173.101 83.718c-.111.22-.221.44-.331.55l-.33.661s.33.11.881.11c.22 0 .771.11.771.11l.44-.55c.11-.11 0-.22-.11-.22l-.661.11c-.11 0-.22-.11-.11-.22l.441-.441c.11-.11 0-.22-.111-.22l-.88.11z" fill="#F8D75B"/><path opacity=".2" d="M177.395 84.268c-2.202.771-4.735.661-4.845.661h.44c.881 0 2.973 0 4.625-.55.22-.11.441-.11.661-.22 1.652-.882 2.643-2.204 1.872-3.416 0-.11-.11-.11-.11-.22.55 1.432-.551 3.084-2.643 3.745z" fill="#9B9B9B"/><path d="M177.505 84.599c-2.202.77-4.845.44-4.955.44.22 0 3.193.661 5.396-.11 2.202-.77 3.523-2.423 2.642-3.745-.11-.22-.33-.44-.55-.55 0 .11.11.11.11.22.881 1.321-.441 2.974-2.643 3.745zm-8.479-2.754c.771 1.763 3.524 3.084 3.524 3.084s1.982-2.203 1.872-4.186c-.111-1.872-1.542-3.304-3.414-2.864-1.872.441-2.643 2.314-1.982 3.966z" fill="#FEFFFF"/><path d="M170.237 83.497c.991.992 2.313 1.543 2.313 1.543s.881-.992 1.431-2.314l-.771-.77c-.11-.11-.22 0-.22 0l-.33.66c0 .11-.22.11-.22 0l-.441-.44c-.11-.11-.22 0-.22.11l-.11.55c0 .11-.22.11-.22.11l-.441-.44c-.11-.11-.22 0-.22.11l-.551.881z" fill="#FEF380"/><path d="M171.338 84.268c.221.11.441.22.551.33l.661.331s.22-.22.44-.66c.11-.22.331-.551.331-.551l-.441-.441c-.11-.11-.22 0-.22.11l-.11.55c0 .111-.22.111-.22.111l-.441-.44c-.11-.11-.22 0-.22.11l-.331.55z" fill="#F8D75B"/><path opacity=".2" d="M173.541 81.074c.11 1.873-.881 3.745-.991 3.966 0 0 .11-.11.11-.22v-.111c.44-.66 1.101-2.203 1.101-3.745 0-.22 0-.33-.11-.551-.33-1.542-1.652-2.534-3.304-2.203-.11 0-.22 0-.22.11 1.762-.22 3.304.991 3.414 2.754z" fill="#9B9B9B"/><path d="M173.871 81.074c.11 1.873-1.211 3.855-1.321 3.966.11-.11 1.982-2.314 1.872-4.186-.11-1.873-1.542-3.305-3.414-2.864-.33.11-.55.11-.771.33.111 0 .221 0 .221-.11 1.872-.44 3.413.991 3.413 2.864z" fill="#FEFFFF"/><path d="M167.595 86.912c2.312-.11 4.955-1.983 4.955-1.873 0 0-1.872-2.093-4.185-2.423-2.202-.44-4.404.44-4.734 1.983-.221 1.432 1.651 2.423 3.964 2.313z" fill="#FEFFFF"/><path d="M169.908 86.361a10.14 10.14 0 002.642-1.432s-.881-.991-2.202-1.652c-.33.11-.881.33-1.211.44-.11 0-.11.11 0 .22l.66.331c.111 0 .111.22 0 .22l-.66.221c-.11 0-.11.22 0 .22l.55.22c.11 0 .11.221 0 .221l-.66.22c-.11 0-.11.22 0 .22l.881.551z" fill="#FEF380"/><path d="M171.229 85.81l.661-.33c.44-.22.66-.44.66-.44l-.55-.551c-.11-.11-.551-.44-.551-.44l-.771.22c-.11 0-.11.22 0 .22l.551.33c.11 0 .11.22 0 .22l-.661.22c-.11 0-.11.221 0 .221l.661.33z" fill="#F8D75B"/><path opacity=".2" d="M168.255 83.277c2.203.441 4.185 1.653 4.295 1.653l-.22-.22s-.111 0-.111-.11c-.66-.441-2.202-1.433-3.964-1.763-.22 0-.44-.11-.66-.11-1.872-.11-3.634.66-3.854 1.982v.22c.44-1.1 2.422-1.982 4.514-1.652z" fill="#9B9B9B"/><path d="M168.476 83.057c2.202.44 4.074 1.872 4.184 1.983-.11-.11-1.982-2.094-4.184-2.424-2.203-.44-4.405.44-4.735 1.983v.44c.22-1.652 2.422-2.423 4.735-1.982zm4.515 6.278c.771-1.872-.441-4.295-.441-4.295s-3.193.99-4.514 2.643c-1.322 1.652-1.211 3.525.55 4.076 1.762.55 3.634-.661 4.405-2.424z" fill="#FEFFFF"/><path d="M173.211 87.353a7.444 7.444 0 00-.661-2.424s-1.431.44-2.863 1.212c0 .22.11.771.11.991 0 .11.11.11.22.11l.771-.33c.11-.11.22 0 .22.11v.551c0 .11.111.11.221.11l.55-.33c.11-.11.22 0 .22.11v.55c0 .11.111.11.221.11l.991-.77z" fill="#FEF380"/><path d="M172.991 86.251c-.11-.22-.11-.44-.221-.55-.11-.441-.22-.661-.22-.661s-.33.11-.881.33l-.66.33v.661c0 .11.11.11.22.11l.55-.55c.111-.11.221 0 .221.11v.55c0 .11.11.11.22.11l.771-.44z" fill="#F8D75B"/><path opacity=".2" d="M168.916 87.903c1.322-1.652 3.414-2.753 3.634-2.864 0 0-.11.11-.33.11h-.11c-.771.441-2.533 1.323-3.524 2.644-.11.11-.22.33-.33.551-.881 1.432-.551 2.974.991 3.525.11 0 .11 0 .22.11-1.431-.77-1.762-2.644-.551-4.076z" fill="#9B9B9B"/><path d="M168.697 87.683c1.321-1.652 3.743-2.644 3.854-2.754-.221.11-3.194.992-4.515 2.644-1.322 1.652-1.211 3.525.55 4.076.331.11.551.11.881.11-.11 0-.22 0-.22-.11-1.762-.44-1.872-2.314-.55-3.966zm9.139-1.983c-1.872-.99-5.286-.66-5.286-.66s0 2.643 1.432 4.075c1.431 1.432 3.743 1.763 5.065.551 1.321-1.212.661-2.974-1.211-3.965z" fill="#FEFFFF"/><path d="M175.633 85.04c-1.541-.22-3.083-.11-3.083-.11s0 1.211.44 2.423c.331 0 .881.11 1.212.11.11 0 .22-.11.22-.22l-.22-.551c0-.11.11-.22.22-.11l.661.11c.11 0 .22-.11.22-.22l-.22-.441c0-.11.11-.22.22-.22l.771.11c.11 0 .22-.11.22-.22l-.661-.661z" fill="#FEF380"/><path d="M174.201 84.93h-1.651s0 .33.11.77c0 .22.11.551.11.551l.771.11c.11 0 .22-.11.22-.22l-.22-.44c0-.11.11-.22.22-.22l.771.11c.11 0 .22-.11.22-.221l-.551-.44z" fill="#F8D75B"/><path opacity=".2" d="M174.642 88.454c-1.431-1.431-2.092-3.304-2.092-3.414v.33c.22.661.661 2.313 1.872 3.305.11.11.33.22.44.44 1.432.992 3.304 1.102 4.515.11l.22-.22c-1.321.992-3.634.771-4.955-.55z" fill="#9B9B9B"/><path d="M174.312 88.675c-1.432-1.322-1.762-3.525-1.762-3.635 0 .11.11 2.753 1.432 4.075 1.431 1.432 3.743 1.763 5.065.551.22-.22.33-.44.44-.66 0 .11-.11.11-.22.22-1.211 1.1-3.524.77-4.955-.551z" fill="#FEFFFF"/><path opacity=".2" d="M177.395 84.268c-2.202.772-4.735.661-4.845.661h.44c.881 0 2.973 0 4.625-.55.22-.11.441-.11.661-.22 1.652-.882 2.643-2.204 1.872-3.416 0-.11-.11-.11-.11-.22.55 1.432-.551 3.085-2.643 3.745z" fill="#9B9B9B"/><path d="M177.505 84.599c-2.202.771-4.845.44-4.955.44.22 0 3.193.661 5.396-.11 2.202-.77 3.523-2.423 2.642-3.745-.11-.22-.33-.44-.55-.55 0 .11.11.11.11.22.881 1.322-.441 2.974-2.643 3.745z" fill="#FEFFFF"/><path d="M163.52 130.974c0 .881-3.193 2.423-6.827 3.084h48.12c4.515 0 15.637.441 15.637-10.575 0-5.948-4.075-8.481-8.259-8.812-5.065-.441-8.809 1.983-9.36 4.957-.33 1.873-.77 5.067-3.633 4.186-2.863-.881-6.607.22-6.607.22-9.911-.22-9.911 2.093-18.39 2.424-4.845.22-8.589-.882-11.452-2.203l-12.442.22c-.551.551-1.102.881-1.102.881s2.423.661 5.176 1.542c3.193.992 6.937 2.314 8.368 3.305.661.33.881.551.771.771z" fill="#F27484"/><path d="M154.711 127.008c1.432.441 2.973.992 4.405 1.543.77.22 1.431.55 2.202.881.661.33 1.431.661 1.982.991h.11l18.279.221h18.279c1.542 0 3.084 0 4.515-.111 1.542-.11 3.083-.11 4.515-.22.771 0 1.541-.11 2.312-.33.771-.221 1.542-.551 2.202-.992 1.322-.991 2.313-2.423 2.423-4.186.11-.44 0-.881 0-1.211-.11-.441-.11-.882-.33-1.322a5.76 5.76 0 00-1.542-2.093c-.661-.551-1.431-.881-2.312-1.102-.441-.11-.771-.11-1.322-.11a4.534 4.534 0 00-4.294 3.966v.661c0 .22 0 .33.11.661.11.44.22.881.55 1.211.551.661 1.212 1.212 1.982 1.542l.111-.771-27.089.111-13.544.22c-4.515.11-9.029.22-13.544.44l-.22-.11.22.11zm.33 0c4.405.111 8.81.111 13.324.111h13.544l27.089-.221h1.872l-1.762-.661a2.851 2.851 0 01-1.542-1.211c-.22-.221-.33-.551-.33-.882 0-.11 0-.33-.11-.55v-.441c.11-1.322 1.211-2.534 2.532-2.864.331-.11.551-.11.991-.11.331 0 .661 0 .991.11.661.11 1.322.551 1.762.881.551.441.881.992 1.101 1.542.111.331.221.661.221.882v.991c-.11 1.322-.771 2.754-1.762 3.745-.991.992-2.533 1.542-3.964 1.763-1.542.11-3.084 0-4.515-.11-1.542-.111-3.083-.111-4.515-.111h-18.279l-18.279.221h.11c-.66-.441-1.431-.771-2.092-.992-.771-.33-1.431-.55-2.202-.771-1.432-.44-2.863-.881-4.185-1.322z" fill="#F25A78"/><path d="M209.989 122.823a707.3 707.3 0 00.881.881c.11.11.22.11.33.22.111.11.221.331.221.441 0 .22-.11.33-.221.44l-.33.331c-.11.11-.22.22-.33.22-.221.11-.441.22-.661.441-.22.11-.44.33-.551.44l-.22.221v.11s.11.11.331.22c.22.11.44.22.77.11.221 0 .331 0 .551-.11.22-.11.44-.22.551-.33.22-.221.33-.331.44-.551.11-.22.11-.441.11-.771v-.661c0-.22 0-.441.11-.661 0-.22 0-.441-.11-.661-.11-.22-.33-.33-.44-.441-.331-.22-.661-.22-.881-.11a.483.483 0 00-.331.11l-.22.111z" fill="#F25A78"/><path opacity=".2" d="M156.693 134.058h7.048c1.541-.55 2.642-1.322 2.642-1.872 0-.661-2.312-1.763-5.065-2.754.11.11.33.11.44.22.111 0 .111.11.221.11s.11.11.22.11.11.111.22.111.11.11.22.11c.111.11.221.11.331.22.11.11.22.11.22.22l.22.221c.11.11.22.22.11.33v.11c-.22.771-2.973 2.203-6.166 2.864h-.661z" fill="#AD0E25"/><path opacity=".3" d="M149.316 125.466s.991.331 2.532.771l11.122.331c2.863 1.322 7.157 2.313 12.002 2.093 8.479-.331 8.699-2.754 18.389-2.203 0 0 4.075-1.322 6.938-.441 2.863.881 3.083-2.864 3.413-4.737.551-2.974 4.185-5.397 9.36-4.957 2.753.221 5.506 1.432 6.937 3.966-1.211-3.635-4.404-5.287-7.708-5.618-5.065-.441-8.809 1.983-9.36 4.957-.33 1.873-.77 5.067-3.633 4.186-2.863-.881-6.607.22-6.607.22-9.911-.22-9.911 2.093-18.389 2.424-4.845.22-8.589-.882-11.452-2.203l-12.443.22c-.551.551-1.101.991-1.101.991z" fill="#BC354C"/><path d="M60.012 128.22s-5.836-2.423-17.288-11.566c0 0 8.81 6.829 17.399 11.015l-.11.551z" fill="#60843A"/><path d="M46.799 119.738s-1.982.661-8.259-2.643c0 0 5.506 1.321 8.259 2.643zm0 0s-2.423-2.313-3.854-7.27c0-.11 4.294 5.728 3.854 7.27zm1.101.881s-.991-.991-7.047.661c0 0 6.496.111 7.047-.661z" fill="#60843A"/><path d="M47.9 120.509s1.1-.771-1.102-5.728c0 0 .11 5.178 1.102 5.728zm-2.643-1.762s-2.753-.771-6.277-5.067c0 0 6.057 3.635 6.277 5.067zm3.633 2.644s-.99-.551-7.377 2.313c.11-.11 6.937-1.102 7.378-2.313zm.111-.111s.991-.44.77-6.168c0-.11-1.871 5.067-.77 6.168zm1.211.882s-1.761-.331-6.496 3.635c0 0 6.166-2.313 6.496-3.635zm0 0s1.432-.771 1.762-5.949c0 0-2.532 4.737-1.762 5.949zm1.102.881s-1.212-.11-4.515 3.965c0 0 4.955-2.423 4.515-3.965zm.109-.11s1.101-.331 1.982-4.847c0 0-3.083 3.525-1.982 4.847zm1.432.991s-1.651-.33-3.634 4.186c0 0 3.854-2.754 3.634-4.186zm0-.11s1.542-.11 2.313-4.406c0 0-2.864 2.974-2.313 4.406zm3.854 4.406s5.836-2.423 17.288-11.566c0 0-8.81 6.829-17.398 11.015l.11.551z" fill="#60843A"/><path d="M69.923 119.738s1.982.661 8.259-2.643c0 0-5.506 1.321-8.259 2.643zm0 0s2.423-2.313 3.854-7.27c0-.11-4.294 5.728-3.854 7.27zm-1.101.881s.99-.991 7.047.661c0 0-6.497.111-7.047-.661z" fill="#60843A"/><path d="M68.822 120.509s-1.101-.771 1.1-5.728c0 0-.11 5.178-1.1 5.728zm2.643-1.762s2.752-.771 6.276-5.067c0 0-6.056 3.635-6.276 5.067zm-3.745 2.644s.992-.551 7.378 2.313c0-.11-6.827-1.102-7.378-2.313zm0-.111s-.99-.44-.77-6.168c0-.11 1.872 5.067.77 6.168zm-1.21.882s1.761-.331 6.496 3.635c0 0-6.166-2.313-6.496-3.635zm0 0s-1.432-.771-1.763-5.949c0 0 2.533 4.737 1.762 5.949zm-1.102.881s1.211-.11 4.515 3.965c0 0-4.955-2.423-4.515-3.965zm-.11-.11s-1.1-.331-1.982-4.847c0 0 2.973 3.525 1.982 4.847zm-1.431.991s1.651-.33 3.634 4.186c0 0-3.855-2.754-3.634-4.186zm-.11-.11s-1.542-.11-2.313-4.406c.11 0 2.973 2.974 2.313 4.406z" fill="#60843A"/><path d="M71.244 138.244c.55-.551 1.101-1.101 1.322-1.983.11-.55 0-.991-.11-1.542-.22-1.101-.661-2.203-1.432-2.864-.77-.771-1.872-.991-2.863-1.101-3.414-.441-6.827-.551-10.24-1.212-1.432-.33-2.974-.661-4.405-.661-1.542 0-3.084.441-4.185 1.542-.22.221-.55.551-.66.992-.11.33-.22.771-.22 1.101-.22.771-.551 1.432-.882 2.093-.33.661-.44 1.542-.22 2.203.22.661.771 1.102 1.322 1.432 3.193 1.873 6.937 1.542 10.57 1.212 3.084-.11 11.342-.551 12.003-1.212z" fill="#46507C"/><path d="M47.46 136.922c.22.661.77 1.102 1.32 1.432 3.194 1.763 6.938 1.543 10.572 1.212 2.863-.22 11.231-.661 11.892-1.322.55-.55 1.101-1.101 1.321-1.983.11-.44 0-.881 0-1.321l-.44.44c-.66.551-8.7 2.093-11.672 2.424-3.524.33-7.598-.551-10.792-2.314-.55-.33-1.1-.771-1.321-1.432-.11-.22-.11-.33-.11-.55-.22.44-.33.771-.55 1.211-.331.661-.441 1.543-.22 2.203z" fill="#323854"/><path d="M62.325 136.261c-.11-.771 3.303-2.643 5.836-3.084 1.541-.22 3.083 0 3.193.771.11.771-1.652 1.542-3.193 1.763-1.542.22-5.726 1.322-5.836.55zm-11.232-.991c1.101.331 2.202.331 2.312-.22.11-.441-1.872-1.653-3.083-2.093-1.101-.331-2.422 1.212.77 2.313z" fill="#6F80B5"/><path d="M69.813 130.313c.44-.44.99-.881 1.101-1.652.11-.441 0-.881 0-1.212-.22-.881-.55-1.873-1.101-2.423-.66-.661-1.542-.771-2.423-.882-2.863-.44-5.726-.44-8.479-.991-1.21-.22-2.422-.551-3.633-.551-1.212 0-2.533.331-3.414 1.322-.22.22-.44.441-.55.771-.11.331-.11.661-.22.992-.11.661-.441 1.101-.661 1.762-.22.661-.33 1.212-.11 1.873.22.55.66.881 1.1 1.101 2.643 1.542 5.727 1.322 8.7.992 2.202-.221 9.14-.661 9.69-1.102z" fill="#46507C"/><path d="M50.102 129.212c.22.55.661.881 1.102 1.101 2.642 1.542 5.726 1.322 8.699.991 2.422-.22 9.25-.55 9.8-1.101.44-.441.991-.881 1.101-1.652.11-.331 0-.771 0-1.102l-.33.331c-.55.44-7.268 1.762-9.58 1.982-2.973.221-6.277-.44-8.92-1.982a2.657 2.657 0 01-1.1-1.102c-.11-.11-.11-.33-.11-.441-.11.331-.331.661-.441.992-.33.661-.44 1.432-.22 1.983z" fill="#323854"/><path d="M62.435 128.661c-.11-.661 2.753-2.203 4.845-2.644 1.321-.22 2.643 0 2.643.661.11.661-1.322 1.322-2.643 1.542-1.321.22-4.845 1.102-4.845.441zm-9.36-.881c.991.33 1.762.22 1.872-.111.11-.44-1.541-1.432-2.532-1.652-.881-.441-1.982.881.66 1.763z" fill="#6F80B5"/><path d="M52.964 123.594c-.33-.331-.77-.771-.88-1.322-.11-.331 0-.661 0-.992.11-.771.44-1.432.88-1.872.55-.441 1.211-.661 1.872-.771 2.202-.331 4.515-.331 6.717-.771.991-.221 1.982-.441 2.973-.441.991 0 1.982.22 2.753.991.22.221.33.331.44.661.11.221.11.551.22.771.11.441.331.882.551 1.432.22.441.33.992.11 1.432-.11.441-.55.661-.88.882-2.093 1.211-4.625.991-6.938.881-1.872-.22-7.377-.551-7.818-.881z" fill="#46507C"/><path d="M68.711 122.712c-.11.441-.55.661-.88.882-2.093 1.211-4.626.991-6.938.881-1.872-.11-7.378-.441-7.818-.881-.33-.331-.771-.771-.881-1.322v-.881l.33.33c.44.441 5.726 1.432 7.708 1.542 2.313.22 5.066-.33 7.158-1.542.33-.22.77-.441.88-.881 0-.11.11-.221.11-.331.11.221.221.551.331.771 0 .441.11.992 0 1.432z" fill="#323854"/><path d="M58.911 122.272c.11-.551-2.202-1.763-3.854-2.093-.991-.22-2.092 0-2.092.551 0 .55 1.101.991 2.092 1.211.991.11 3.744.771 3.854.331zm7.378-.661c-.771.22-1.432.22-1.542-.11-.11-.331 1.321-1.102 1.982-1.322.77-.331 1.652.661-.44 1.432z" fill="#6F80B5"/><path d="M1.542 113.79v22.141c0 1.432 1.101 2.644 2.533 2.644H18.61c1.431 0 2.532-1.212 2.532-2.644V113.79c0-3.084-1.982-5.838-4.845-6.499l-1.872-.441H8.15l-1.872.441c-2.753.661-4.735 3.304-4.735 6.499z" fill="#E89C52"/><path opacity=".3" d="M0 113.129v23.793c0 1.543 1.322 2.864 2.863 2.864h16.848c1.542 0 2.863-1.321 2.863-2.864v-23.793c0-3.305-2.312-6.169-5.506-6.94l-2.092-.44H7.708l-2.092.44C2.313 106.85 0 109.714 0 113.129z" fill="#fff"/><path opacity=".25" d="M0 113.129v23.793c0 1.543 1.322 2.864 2.863 2.864h16.848c1.211 0 2.202-.661 2.643-1.762H7.268c-1.542 0-2.863-1.322-2.863-2.864v-23.794c0-2.203.991-4.296 2.643-5.617l-1.542.33C2.313 106.85 0 109.714 0 113.129z" fill="#B2B2B2"/><path d="M7.709 99.69h7.267v5.948H7.71V99.69z" fill="#AB99C6"/><path d="M11.342 100.461c-2.006 0-3.633-.345-3.633-.771 0-.426 1.627-.771 3.633-.771 2.007 0 3.634.345 3.634.771 0 .426-1.627.771-3.634.771z" fill="#B9A7D1"/><path d="M11.342 106.299c-2.006 0-3.633-.296-3.633-.661 0-.365 1.627-.661 3.633-.661 2.007 0 3.634.296 3.634.661 0 .365-1.627.661-3.634.661z" fill="#AB99C6"/><path d="M11.342 99.8c.44 0 .771-.33.771-.77v-3.966a.753.753 0 00-.77-.772.753.753 0 00-.772.772v3.965c0 .44.33.771.771.771z" fill="#C67E36"/><path d="M17.509 95.504h-8.37c-.22 0-.33-.11-.44-.11-.44-.33-.44-.881-.11-1.212l.33-.33a.84.84 0 01.551-.22h5.616c-.11-.11 1.652.33 2.423 1.872z" fill="#D89041"/><path opacity=".2" d="M14.425 108.833l1.652.551c1.872 1.101 3.083 3.084 3.083 5.177v5.728" stroke="#fff" stroke-width="3.236" stroke-miterlimit="10" stroke-linecap="round"/><path d="M26.978 139.786h14.976c11.562-5.067 11.012-14.32 11.012-14.32H16.077c-.11 0-.66 9.253 10.901 14.32z" fill="#F8D75B"/><path d="M26.978 139.786h2.643c-9.69-5.507-8.148-14.32-8.148-14.32h-5.396c-.11 0-.66 9.253 10.901 14.32z" fill="#EFCA52"/><path d="M15.967 125.466c0 1.542 8.259 2.754 18.5 2.754 10.24 0 18.499-1.212 18.499-2.754s-8.259-2.754-18.5-2.754c-10.24 0-18.499 1.212-18.499 2.754z" fill="#FEF380"/><path d="M18.72 125.466c0 .661 3.744 1.322 9.25 1.542.55 0 1.21 0 1.762.111 1.431 0 3.083.11 4.735.11 8.699 0 15.746-.771 15.746-1.763 0-.991-7.047-1.762-15.746-1.762h-3.744c-.881 0-1.652 0-2.423.11-.44 0-.991 0-1.431.11-4.846.331-8.149.881-8.149 1.542z" fill="#F8D75B"/><path d="M25.217 118.416l1.762 5.508.99 3.084c.551 0 1.212 0 1.762.111 1.432 0 3.084.11 4.735.11l-1.431-2.313-.66-1.102-3.965-6.609-.11-.11h-1.651a2.13 2.13 0 00-.992.55l-.11.11-.11.111c-.11.33-.22.55-.22.55z" fill="#D89041"/><path d="M25.217 118.416l1.762 5.508.99 3.084c.551 0 1.212 0 1.762.111l-1.431-3.195-2.313-5.397-.33-.661-.11.11-.11.11c-.11.11-.22.33-.22.33z" fill="#C67E36"/><path d="M26.758 117.205s2.643 7.27 6.277 7.6l-4.625-7.821c-.66 0-1.211.111-1.652.221z" fill="#E89C52"/><path d="M23.235 117.205c.44 1.211 1.982 1.652 3.633 1.101 1.542-.551 2.423-1.983 1.983-3.194-.441-1.212-1.983-1.653-3.634-1.102-1.432.551-2.423 1.983-1.982 3.195z" fill="#D89041"/><path d="M24.776 116.103c.22.771 1.211 1.102 2.202.661.991-.441 1.542-1.212 1.212-1.983-.22-.771-1.212-1.101-2.203-.661-.88.331-1.431 1.212-1.211 1.983z" fill="#E89C52"/><path d="M93.598 138.905c-.33-.33-.77-.771-.881-1.322-.11-.33 0-.661 0-.991.11-.771.44-1.432.88-1.873.552-.44 1.212-.661 1.873-.771 2.202-.33 4.515-.33 6.717-.771.991-.22 1.982-.441 2.973-.441.991 0 1.982.221 2.753.992.22.22.33.33.44.661.11.22.11.551.221.771.11.44.33.881.55 1.432.22.441.33.991.11 1.432-.11.441-.55.661-.881.881-2.092 1.212-4.625.992-6.937.881-1.982-.22-7.378-.44-7.818-.881z" fill="#46507C"/><path d="M109.234 138.024c-.11.441-.55.661-.881.881-2.092 1.212-4.625.992-6.937.881-1.872-.11-7.378-.44-7.818-.881-.33-.33-.77-.771-.881-1.322v-.881l.33.331c.44.44 5.726 1.432 7.708 1.542 2.313.22 5.066-.331 7.158-1.542.33-.221.771-.441.881-.882 0-.11.11-.22.11-.33.11.22.22.551.33.771.11.44.22.991 0 1.432z" fill="#323854"/><path d="M99.434 137.583c.11-.55-2.203-1.762-3.854-2.093-.991-.22-2.093 0-2.093.551-.11.551 1.102.992 2.093 1.212 1.1.11 3.854.881 3.854.33zm7.378-.661c-.771.221-1.432.221-1.542-.11-.11-.33 1.321-1.101 1.982-1.322.881-.33 1.762.661-.44 1.432z" fill="#6F80B5"/><path d="M150.637 138.795c-.44-.33-.881-.881-.991-1.432-.11-.33 0-.771 0-1.102.11-.771.441-1.652.991-2.092.551-.551 1.432-.661 2.092-.772 2.533-.33 5.066-.44 7.598-.881 1.102-.22 2.203-.44 3.304-.44s2.202.33 3.083 1.101c.22.22.33.441.441.661.11.22.11.551.22.881.11.551.44.992.66 1.542.221.551.331 1.102.111 1.653-.221.44-.551.771-.991.991-2.313 1.322-5.176 1.102-7.819.881-2.092-.22-8.148-.55-8.699-.991z" fill="#46507C"/><path d="M168.146 137.804c-.221.44-.551.771-.991.991-2.313 1.322-5.176 1.102-7.819.881-2.092-.22-8.258-.551-8.699-.991-.44-.331-.881-.881-.991-1.432-.11-.331 0-.661 0-.992l.331.331c.44.441 6.386 1.542 8.589 1.762 2.642.221 5.615-.44 7.928-1.762.44-.22.771-.551.991-.991 0-.111.11-.221.11-.441.11.33.22.551.44.881.221.661.331 1.212.111 1.763z" fill="#323854"/><path d="M157.244 137.253c.11-.551-2.422-1.983-4.294-2.313-1.212-.221-2.313 0-2.423.55-.11.551 1.211 1.102 2.312 1.322 1.212.331 4.295 1.102 4.405.441zm8.259-.661c-.881.22-1.542.22-1.652-.11-.11-.331 1.431-1.212 2.202-1.542.881-.331 1.872.771-.55 1.652z" fill="#6F80B5"/><defs><linearGradient id="paint0_linear" x1="169.173" y1="112.43" x2="172.876" y2="110.191" gradientUnits="userSpaceOnUse"><stop stop-color="#FFD5C7"/><stop offset="1" stop-color="#FEC4AD"/></linearGradient></defs></svg>